G04 #@! TF.GenerationSoftware,KiCad,Pcbnew,(5.1.6)-1*
G04 #@! TF.CreationDate,2020-09-08T15:56:59+05:30*
G04 #@! TF.ProjectId,rj-2-4ghz-filter-amp,726a2d32-2d34-4676-987a-2d66696c7465,rev?*
G04 #@! TF.SameCoordinates,Original*
G04 #@! TF.FileFunction,Legend,Bot*
G04 #@! TF.FilePolarity,Positive*
%FSLAX46Y46*%
G04 Gerber Fmt 4.6, Leading zero omitted, Abs format (unit mm)*
G04 Created by KiCad (PCBNEW (5.1.6)-1) date 2020-09-08 15:56:59*
%MOMM*%
%LPD*%
G01*
G04 APERTURE LIST*
%ADD10C,0.200000*%
%ADD11C,0.250000*%
%ADD12C,0.150000*%
%ADD13C,0.120000*%
%ADD14C,0.300000*%
G04 #@! TA.AperFunction,Profile*
%ADD15C,0.050000*%
G04 #@! TD*
%ADD16O,1.602000X2.102000*%
%ADD17C,2.102000*%
%ADD18C,6.502000*%
%ADD19C,0.902000*%
%ADD20C,0.389500*%
%ADD21C,0.314500*%
%ADD22R,5.203200X1.981200*%
G04 APERTURE END LIST*
D10*
X160817391Y-92530181D02*
X161484058Y-91577800D01*
X161960248Y-92530181D02*
X161960248Y-90530181D01*
X161198343Y-90530181D01*
X161007867Y-90625420D01*
X160912629Y-90720658D01*
X160817391Y-90911134D01*
X160817391Y-91196848D01*
X160912629Y-91387324D01*
X161007867Y-91482562D01*
X161198343Y-91577800D01*
X161960248Y-91577800D01*
X159103105Y-92530181D02*
X159103105Y-91482562D01*
X159198343Y-91292086D01*
X159388820Y-91196848D01*
X159769772Y-91196848D01*
X159960248Y-91292086D01*
X159103105Y-92434943D02*
X159293581Y-92530181D01*
X159769772Y-92530181D01*
X159960248Y-92434943D01*
X160055486Y-92244467D01*
X160055486Y-92053991D01*
X159960248Y-91863515D01*
X159769772Y-91768277D01*
X159293581Y-91768277D01*
X159103105Y-91673039D01*
X157293581Y-92530181D02*
X157293581Y-90530181D01*
X157293581Y-92434943D02*
X157484058Y-92530181D01*
X157865010Y-92530181D01*
X158055486Y-92434943D01*
X158150724Y-92339705D01*
X158245962Y-92149229D01*
X158245962Y-91577800D01*
X158150724Y-91387324D01*
X158055486Y-91292086D01*
X157865010Y-91196848D01*
X157484058Y-91196848D01*
X157293581Y-91292086D01*
X156341200Y-92530181D02*
X156341200Y-91196848D01*
X156341200Y-90530181D02*
X156436439Y-90625420D01*
X156341200Y-90720658D01*
X156245962Y-90625420D01*
X156341200Y-90530181D01*
X156341200Y-90720658D01*
X155103105Y-92530181D02*
X155293581Y-92434943D01*
X155388820Y-92339705D01*
X155484058Y-92149229D01*
X155484058Y-91577800D01*
X155388820Y-91387324D01*
X155293581Y-91292086D01*
X155103105Y-91196848D01*
X154817391Y-91196848D01*
X154626915Y-91292086D01*
X154531677Y-91387324D01*
X154436439Y-91577800D01*
X154436439Y-92149229D01*
X154531677Y-92339705D01*
X154626915Y-92434943D01*
X154817391Y-92530181D01*
X155103105Y-92530181D01*
X153007867Y-90530181D02*
X153007867Y-91958753D01*
X153103105Y-92244467D01*
X153293581Y-92434943D01*
X153579296Y-92530181D01*
X153769772Y-92530181D01*
X152055486Y-92530181D02*
X152055486Y-91196848D01*
X152055486Y-90530181D02*
X152150724Y-90625420D01*
X152055486Y-90720658D01*
X151960248Y-90625420D01*
X152055486Y-90530181D01*
X152055486Y-90720658D01*
X151388820Y-91196848D02*
X150626915Y-91196848D01*
X151103105Y-90530181D02*
X151103105Y-92244467D01*
X151007867Y-92434943D01*
X150817391Y-92530181D01*
X150626915Y-92530181D01*
X150245962Y-91196848D02*
X149484058Y-91196848D01*
X149960248Y-90530181D02*
X149960248Y-92244467D01*
X149865010Y-92434943D01*
X149674534Y-92530181D01*
X149484058Y-92530181D01*
X148055486Y-92434943D02*
X148245962Y-92530181D01*
X148626915Y-92530181D01*
X148817391Y-92434943D01*
X148912629Y-92244467D01*
X148912629Y-91482562D01*
X148817391Y-91292086D01*
X148626915Y-91196848D01*
X148245962Y-91196848D01*
X148055486Y-91292086D01*
X147960248Y-91482562D01*
X147960248Y-91673039D01*
X148912629Y-91863515D01*
X147103105Y-92530181D02*
X147103105Y-91196848D01*
X147103105Y-91577800D02*
X147007867Y-91387324D01*
X146912629Y-91292086D01*
X146722153Y-91196848D01*
X146531677Y-91196848D01*
D11*
X161636331Y-88447792D02*
X161636331Y-85947792D01*
X160207760Y-88447792D02*
X161279188Y-87019220D01*
X160207760Y-85947792D02*
X161636331Y-87376363D01*
X158064902Y-88447792D02*
X158064902Y-87138268D01*
X158183950Y-86900173D01*
X158422045Y-86781125D01*
X158898236Y-86781125D01*
X159136331Y-86900173D01*
X158064902Y-88328744D02*
X158302998Y-88447792D01*
X158898236Y-88447792D01*
X159136331Y-88328744D01*
X159255379Y-88090649D01*
X159255379Y-87852554D01*
X159136331Y-87614459D01*
X158898236Y-87495411D01*
X158302998Y-87495411D01*
X158064902Y-87376363D01*
X156874426Y-88447792D02*
X156874426Y-86781125D01*
X156874426Y-87019220D02*
X156755379Y-86900173D01*
X156517283Y-86781125D01*
X156160140Y-86781125D01*
X155922045Y-86900173D01*
X155802998Y-87138268D01*
X155802998Y-88447792D01*
X155802998Y-87138268D02*
X155683950Y-86900173D01*
X155445855Y-86781125D01*
X155088712Y-86781125D01*
X154850617Y-86900173D01*
X154731569Y-87138268D01*
X154731569Y-88447792D01*
X152469664Y-86781125D02*
X152469664Y-88447792D01*
X153541093Y-86781125D02*
X153541093Y-88090649D01*
X153422045Y-88328744D01*
X153183950Y-88447792D01*
X152826807Y-88447792D01*
X152588712Y-88328744D01*
X152469664Y-88209697D01*
X151279188Y-88447792D02*
X151279188Y-86781125D01*
X151279188Y-85947792D02*
X151398236Y-86066840D01*
X151279188Y-86185887D01*
X151160140Y-86066840D01*
X151279188Y-85947792D01*
X151279188Y-86185887D01*
D12*
X151706757Y-84560671D02*
X150849614Y-84560671D01*
X151278185Y-86060671D02*
X151278185Y-84560671D01*
X149778185Y-85989242D02*
X149921042Y-86060671D01*
X150206757Y-86060671D01*
X150349614Y-85989242D01*
X150421042Y-85846385D01*
X150421042Y-85274957D01*
X150349614Y-85132100D01*
X150206757Y-85060671D01*
X149921042Y-85060671D01*
X149778185Y-85132100D01*
X149706757Y-85274957D01*
X149706757Y-85417814D01*
X150421042Y-85560671D01*
X148421042Y-85989242D02*
X148563900Y-86060671D01*
X148849614Y-86060671D01*
X148992471Y-85989242D01*
X149063900Y-85917814D01*
X149135328Y-85774957D01*
X149135328Y-85346385D01*
X149063900Y-85203528D01*
X148992471Y-85132100D01*
X148849614Y-85060671D01*
X148563900Y-85060671D01*
X148421042Y-85132100D01*
X147778185Y-86060671D02*
X147778185Y-84560671D01*
X147135328Y-86060671D02*
X147135328Y-85274957D01*
X147206757Y-85132100D01*
X147349614Y-85060671D01*
X147563900Y-85060671D01*
X147706757Y-85132100D01*
X147778185Y-85203528D01*
D13*
X189801500Y-91401900D02*
X199745600Y-91401900D01*
X189801500Y-108389420D02*
X189801500Y-91401900D01*
X199740520Y-108389420D02*
X189801500Y-108389420D01*
X223128840Y-108389420D02*
X199740520Y-108389420D01*
X223128840Y-91394280D02*
X223128840Y-108389420D01*
X199737980Y-91394280D02*
X223128840Y-91394280D01*
X212704680Y-108366560D02*
X212704680Y-91394280D01*
D14*
X220717628Y-92427051D02*
X220717628Y-93641337D01*
X220646200Y-93784194D01*
X220574771Y-93855622D01*
X220431914Y-93927051D01*
X220146200Y-93927051D01*
X220003342Y-93855622D01*
X219931914Y-93784194D01*
X219860485Y-93641337D01*
X219860485Y-92427051D01*
X218503342Y-92927051D02*
X218503342Y-93927051D01*
X218860485Y-92355622D02*
X219217628Y-93427051D01*
X218289057Y-93427051D01*
X217646200Y-93855622D02*
X217646200Y-93927051D01*
X217717628Y-94069908D01*
X217789057Y-94141337D01*
X215860485Y-92427051D02*
X215860485Y-93641337D01*
X215789057Y-93784194D01*
X215717628Y-93855622D01*
X215574771Y-93927051D01*
X215289057Y-93927051D01*
X215146200Y-93855622D01*
X215074771Y-93784194D01*
X215003342Y-93641337D01*
X215003342Y-92427051D01*
X213574771Y-92427051D02*
X214289057Y-92427051D01*
X214360485Y-93141337D01*
X214289057Y-93069908D01*
X214146200Y-92998480D01*
X213789057Y-92998480D01*
X213646200Y-93069908D01*
X213574771Y-93141337D01*
X213503342Y-93284194D01*
X213503342Y-93641337D01*
X213574771Y-93784194D01*
X213646200Y-93855622D01*
X213789057Y-93927051D01*
X214146200Y-93927051D01*
X214289057Y-93855622D01*
X214360485Y-93784194D01*
X211789057Y-93855622D02*
X211574771Y-93927051D01*
X211217628Y-93927051D01*
X211074771Y-93855622D01*
X211003342Y-93784194D01*
X210931914Y-93641337D01*
X210931914Y-93498480D01*
X211003342Y-93355622D01*
X211074771Y-93284194D01*
X211217628Y-93212765D01*
X211503342Y-93141337D01*
X211646200Y-93069908D01*
X211717628Y-92998480D01*
X211789057Y-92855622D01*
X211789057Y-92712765D01*
X211717628Y-92569908D01*
X211646200Y-92498480D01*
X211503342Y-92427051D01*
X211146200Y-92427051D01*
X210931914Y-92498480D01*
X210289057Y-93927051D02*
X210289057Y-92427051D01*
X209431914Y-93927051D02*
X210074771Y-93069908D01*
X209431914Y-92427051D02*
X210289057Y-93284194D01*
X208503342Y-93212765D02*
X208503342Y-93927051D01*
X209003342Y-92427051D02*
X208503342Y-93212765D01*
X208003342Y-92427051D01*
X206860485Y-92427051D02*
X207146200Y-92427051D01*
X207289057Y-92498480D01*
X207360485Y-92569908D01*
X207503342Y-92784194D01*
X207574771Y-93069908D01*
X207574771Y-93641337D01*
X207503342Y-93784194D01*
X207431914Y-93855622D01*
X207289057Y-93927051D01*
X207003342Y-93927051D01*
X206860485Y-93855622D01*
X206789057Y-93784194D01*
X206717628Y-93641337D01*
X206717628Y-93284194D01*
X206789057Y-93141337D01*
X206860485Y-93069908D01*
X207003342Y-92998480D01*
X207289057Y-92998480D01*
X207431914Y-93069908D01*
X207503342Y-93141337D01*
X207574771Y-93284194D01*
X205431914Y-92427051D02*
X205717628Y-92427051D01*
X205860485Y-92498480D01*
X205931914Y-92569908D01*
X206074771Y-92784194D01*
X206146200Y-93069908D01*
X206146200Y-93641337D01*
X206074771Y-93784194D01*
X206003342Y-93855622D01*
X205860485Y-93927051D01*
X205574771Y-93927051D01*
X205431914Y-93855622D01*
X205360485Y-93784194D01*
X205289057Y-93641337D01*
X205289057Y-93284194D01*
X205360485Y-93141337D01*
X205431914Y-93069908D01*
X205574771Y-92998480D01*
X205860485Y-92998480D01*
X206003342Y-93069908D01*
X206074771Y-93141337D01*
X206146200Y-93284194D01*
X204717628Y-92569908D02*
X204646200Y-92498480D01*
X204503342Y-92427051D01*
X204146200Y-92427051D01*
X204003342Y-92498480D01*
X203931914Y-92569908D01*
X203860485Y-92712765D01*
X203860485Y-92855622D01*
X203931914Y-93069908D01*
X204789057Y-93927051D01*
X203860485Y-93927051D01*
X203146200Y-93927051D02*
X202860485Y-93927051D01*
X202717628Y-93855622D01*
X202646200Y-93784194D01*
X202503342Y-93569908D01*
X202431914Y-93284194D01*
X202431914Y-92712765D01*
X202503342Y-92569908D01*
X202574771Y-92498480D01*
X202717628Y-92427051D01*
X203003342Y-92427051D01*
X203146200Y-92498480D01*
X203217628Y-92569908D01*
X203289057Y-92712765D01*
X203289057Y-93069908D01*
X203217628Y-93212765D01*
X203146200Y-93284194D01*
X203003342Y-93355622D01*
X202717628Y-93355622D01*
X202574771Y-93284194D01*
X202503342Y-93212765D01*
X202431914Y-93069908D01*
X201074771Y-92427051D02*
X201789057Y-92427051D01*
X201860485Y-93141337D01*
X201789057Y-93069908D01*
X201646200Y-92998480D01*
X201289057Y-92998480D01*
X201146200Y-93069908D01*
X201074771Y-93141337D01*
X201003342Y-93284194D01*
X201003342Y-93641337D01*
X201074771Y-93784194D01*
X201146200Y-93855622D01*
X201289057Y-93927051D01*
X201646200Y-93927051D01*
X201789057Y-93855622D01*
X201860485Y-93784194D01*
X215901148Y-95073731D02*
X215901148Y-96288017D01*
X215829720Y-96430874D01*
X215758291Y-96502302D01*
X215615434Y-96573731D01*
X215329720Y-96573731D01*
X215186862Y-96502302D01*
X215115434Y-96430874D01*
X215044005Y-96288017D01*
X215044005Y-95073731D01*
X214472577Y-95073731D02*
X213544005Y-95073731D01*
X214044005Y-95645160D01*
X213829720Y-95645160D01*
X213686862Y-95716588D01*
X213615434Y-95788017D01*
X213544005Y-95930874D01*
X213544005Y-96288017D01*
X213615434Y-96430874D01*
X213686862Y-96502302D01*
X213829720Y-96573731D01*
X214258291Y-96573731D01*
X214401148Y-96502302D01*
X214472577Y-96430874D01*
X210901148Y-96573731D02*
X211401148Y-95859445D01*
X211758291Y-96573731D02*
X211758291Y-95073731D01*
X211186862Y-95073731D01*
X211044005Y-95145160D01*
X210972577Y-95216588D01*
X210901148Y-95359445D01*
X210901148Y-95573731D01*
X210972577Y-95716588D01*
X211044005Y-95788017D01*
X211186862Y-95859445D01*
X211758291Y-95859445D01*
X209758291Y-95788017D02*
X210258291Y-95788017D01*
X210258291Y-96573731D02*
X210258291Y-95073731D01*
X209544005Y-95073731D01*
X209044005Y-96502302D02*
X208829720Y-96573731D01*
X208472577Y-96573731D01*
X208329720Y-96502302D01*
X208258291Y-96430874D01*
X208186862Y-96288017D01*
X208186862Y-96145160D01*
X208258291Y-96002302D01*
X208329720Y-95930874D01*
X208472577Y-95859445D01*
X208758291Y-95788017D01*
X208901148Y-95716588D01*
X208972577Y-95645160D01*
X209044005Y-95502302D01*
X209044005Y-95359445D01*
X208972577Y-95216588D01*
X208901148Y-95145160D01*
X208758291Y-95073731D01*
X208401148Y-95073731D01*
X208186862Y-95145160D01*
X207615434Y-96145160D02*
X206901148Y-96145160D01*
X207758291Y-96573731D02*
X207258291Y-95073731D01*
X206758291Y-96573731D01*
X206401148Y-95073731D02*
X205472577Y-95073731D01*
X205972577Y-95645160D01*
X205758291Y-95645160D01*
X205615434Y-95716588D01*
X205544005Y-95788017D01*
X205472577Y-95930874D01*
X205472577Y-96288017D01*
X205544005Y-96430874D01*
X205615434Y-96502302D01*
X205758291Y-96573731D01*
X206186862Y-96573731D01*
X206329720Y-96502302D01*
X206401148Y-96430874D01*
X204186862Y-95073731D02*
X204472577Y-95073731D01*
X204615434Y-95145160D01*
X204686862Y-95216588D01*
X204829720Y-95430874D01*
X204901148Y-95716588D01*
X204901148Y-96288017D01*
X204829720Y-96430874D01*
X204758291Y-96502302D01*
X204615434Y-96573731D01*
X204329720Y-96573731D01*
X204186862Y-96502302D01*
X204115434Y-96430874D01*
X204044005Y-96288017D01*
X204044005Y-95930874D01*
X204115434Y-95788017D01*
X204186862Y-95716588D01*
X204329720Y-95645160D01*
X204615434Y-95645160D01*
X204758291Y-95716588D01*
X204829720Y-95788017D01*
X204901148Y-95930874D01*
X202615434Y-96573731D02*
X203472577Y-96573731D01*
X203044005Y-96573731D02*
X203044005Y-95073731D01*
X203186862Y-95288017D01*
X203329720Y-95430874D01*
X203472577Y-95502302D01*
X202115434Y-95073731D02*
X201186862Y-95073731D01*
X201686862Y-95645160D01*
X201472577Y-95645160D01*
X201329720Y-95716588D01*
X201258291Y-95788017D01*
X201186862Y-95930874D01*
X201186862Y-96288017D01*
X201258291Y-96430874D01*
X201329720Y-96502302D01*
X201472577Y-96573731D01*
X201901148Y-96573731D01*
X202044005Y-96502302D01*
X202115434Y-96430874D01*
X215886217Y-97763591D02*
X215886217Y-98977877D01*
X215814788Y-99120734D01*
X215743360Y-99192162D01*
X215600502Y-99263591D01*
X215314788Y-99263591D01*
X215171931Y-99192162D01*
X215100502Y-99120734D01*
X215029074Y-98977877D01*
X215029074Y-97763591D01*
X214386217Y-97906448D02*
X214314788Y-97835020D01*
X214171931Y-97763591D01*
X213814788Y-97763591D01*
X213671931Y-97835020D01*
X213600502Y-97906448D01*
X213529074Y-98049305D01*
X213529074Y-98192162D01*
X213600502Y-98406448D01*
X214457645Y-99263591D01*
X213529074Y-99263591D01*
X211814788Y-99192162D02*
X211600502Y-99263591D01*
X211243360Y-99263591D01*
X211100502Y-99192162D01*
X211029074Y-99120734D01*
X210957645Y-98977877D01*
X210957645Y-98835020D01*
X211029074Y-98692162D01*
X211100502Y-98620734D01*
X211243360Y-98549305D01*
X211529074Y-98477877D01*
X211671931Y-98406448D01*
X211743360Y-98335020D01*
X211814788Y-98192162D01*
X211814788Y-98049305D01*
X211743360Y-97906448D01*
X211671931Y-97835020D01*
X211529074Y-97763591D01*
X211171931Y-97763591D01*
X210957645Y-97835020D01*
X210314788Y-99263591D02*
X210314788Y-97763591D01*
X209743360Y-97763591D01*
X209600502Y-97835020D01*
X209529074Y-97906448D01*
X209457645Y-98049305D01*
X209457645Y-98263591D01*
X209529074Y-98406448D01*
X209600502Y-98477877D01*
X209743360Y-98549305D01*
X210314788Y-98549305D01*
X208314788Y-98477877D02*
X208814788Y-98477877D01*
X208814788Y-99263591D02*
X208814788Y-97763591D01*
X208100502Y-97763591D01*
X206814788Y-97763591D02*
X207529074Y-97763591D01*
X207600502Y-98477877D01*
X207529074Y-98406448D01*
X207386217Y-98335020D01*
X207029074Y-98335020D01*
X206886217Y-98406448D01*
X206814788Y-98477877D01*
X206743360Y-98620734D01*
X206743360Y-98977877D01*
X206814788Y-99120734D01*
X206886217Y-99192162D01*
X207029074Y-99263591D01*
X207386217Y-99263591D01*
X207529074Y-99192162D01*
X207600502Y-99120734D01*
X205314788Y-99263591D02*
X206171931Y-99263591D01*
X205743360Y-99263591D02*
X205743360Y-97763591D01*
X205886217Y-97977877D01*
X206029074Y-98120734D01*
X206171931Y-98192162D01*
X204457645Y-98406448D02*
X204600502Y-98335020D01*
X204671931Y-98263591D01*
X204743360Y-98120734D01*
X204743360Y-98049305D01*
X204671931Y-97906448D01*
X204600502Y-97835020D01*
X204457645Y-97763591D01*
X204171931Y-97763591D01*
X204029074Y-97835020D01*
X203957645Y-97906448D01*
X203886217Y-98049305D01*
X203886217Y-98120734D01*
X203957645Y-98263591D01*
X204029074Y-98335020D01*
X204171931Y-98406448D01*
X204457645Y-98406448D01*
X204600502Y-98477877D01*
X204671931Y-98549305D01*
X204743360Y-98692162D01*
X204743360Y-98977877D01*
X204671931Y-99120734D01*
X204600502Y-99192162D01*
X204457645Y-99263591D01*
X204171931Y-99263591D01*
X204029074Y-99192162D01*
X203957645Y-99120734D01*
X203886217Y-98977877D01*
X203886217Y-98692162D01*
X203957645Y-98549305D01*
X204029074Y-98477877D01*
X204171931Y-98406448D01*
X203171931Y-99263591D02*
X202886217Y-99263591D01*
X202743360Y-99192162D01*
X202671931Y-99120734D01*
X202529074Y-98906448D01*
X202457645Y-98620734D01*
X202457645Y-98049305D01*
X202529074Y-97906448D01*
X202600502Y-97835020D01*
X202743360Y-97763591D01*
X203029074Y-97763591D01*
X203171931Y-97835020D01*
X203243360Y-97906448D01*
X203314788Y-98049305D01*
X203314788Y-98406448D01*
X203243360Y-98549305D01*
X203171931Y-98620734D01*
X203029074Y-98692162D01*
X202743360Y-98692162D01*
X202600502Y-98620734D01*
X202529074Y-98549305D01*
X202457645Y-98406448D01*
X201957645Y-97763591D02*
X200957645Y-97763591D01*
X201957645Y-99263591D01*
X200957645Y-99263591D01*
X215642817Y-107226491D02*
X215642817Y-105726491D01*
X215285674Y-105726491D01*
X215071388Y-105797920D01*
X214928531Y-105940777D01*
X214857102Y-106083634D01*
X214785674Y-106369348D01*
X214785674Y-106583634D01*
X214857102Y-106869348D01*
X214928531Y-107012205D01*
X215071388Y-107155062D01*
X215285674Y-107226491D01*
X215642817Y-107226491D01*
X213357102Y-107226491D02*
X214214245Y-107226491D01*
X213785674Y-107226491D02*
X213785674Y-105726491D01*
X213928531Y-105940777D01*
X214071388Y-106083634D01*
X214214245Y-106155062D01*
X211071388Y-106440777D02*
X210857102Y-106512205D01*
X210785674Y-106583634D01*
X210714245Y-106726491D01*
X210714245Y-106940777D01*
X210785674Y-107083634D01*
X210857102Y-107155062D01*
X210999960Y-107226491D01*
X211571388Y-107226491D01*
X211571388Y-105726491D01*
X211071388Y-105726491D01*
X210928531Y-105797920D01*
X210857102Y-105869348D01*
X210785674Y-106012205D01*
X210785674Y-106155062D01*
X210857102Y-106297920D01*
X210928531Y-106369348D01*
X211071388Y-106440777D01*
X211571388Y-106440777D01*
X210142817Y-106797920D02*
X209428531Y-106797920D01*
X210285674Y-107226491D02*
X209785674Y-105726491D01*
X209285674Y-107226491D01*
X208999960Y-105726491D02*
X208499960Y-107226491D01*
X207999960Y-105726491D01*
X207428531Y-107226491D02*
X207142817Y-107226491D01*
X206999960Y-107155062D01*
X206928531Y-107083634D01*
X206785674Y-106869348D01*
X206714245Y-106583634D01*
X206714245Y-106012205D01*
X206785674Y-105869348D01*
X206857102Y-105797920D01*
X206999960Y-105726491D01*
X207285674Y-105726491D01*
X207428531Y-105797920D01*
X207499960Y-105869348D01*
X207571388Y-106012205D01*
X207571388Y-106369348D01*
X207499960Y-106512205D01*
X207428531Y-106583634D01*
X207285674Y-106655062D01*
X206999960Y-106655062D01*
X206857102Y-106583634D01*
X206785674Y-106512205D01*
X206714245Y-106369348D01*
X205999960Y-107226491D02*
X205714245Y-107226491D01*
X205571388Y-107155062D01*
X205499960Y-107083634D01*
X205357102Y-106869348D01*
X205285674Y-106583634D01*
X205285674Y-106012205D01*
X205357102Y-105869348D01*
X205428531Y-105797920D01*
X205571388Y-105726491D01*
X205857102Y-105726491D01*
X205999960Y-105797920D01*
X206071388Y-105869348D01*
X206142817Y-106012205D01*
X206142817Y-106369348D01*
X206071388Y-106512205D01*
X205999960Y-106583634D01*
X205857102Y-106655062D01*
X205571388Y-106655062D01*
X205428531Y-106583634D01*
X205357102Y-106512205D01*
X205285674Y-106369348D01*
X215801754Y-100499171D02*
X215801754Y-101713457D01*
X215730325Y-101856314D01*
X215658897Y-101927742D01*
X215516040Y-101999171D01*
X215230325Y-101999171D01*
X215087468Y-101927742D01*
X215016040Y-101856314D01*
X214944611Y-101713457D01*
X214944611Y-100499171D01*
X213444611Y-101999171D02*
X214301754Y-101999171D01*
X213873182Y-101999171D02*
X213873182Y-100499171D01*
X214016040Y-100713457D01*
X214158897Y-100856314D01*
X214301754Y-100927742D01*
X211158897Y-101213457D02*
X210944611Y-101284885D01*
X210873182Y-101356314D01*
X210801754Y-101499171D01*
X210801754Y-101713457D01*
X210873182Y-101856314D01*
X210944611Y-101927742D01*
X211087468Y-101999171D01*
X211658897Y-101999171D01*
X211658897Y-100499171D01*
X211158897Y-100499171D01*
X211016040Y-100570600D01*
X210944611Y-100642028D01*
X210873182Y-100784885D01*
X210873182Y-100927742D01*
X210944611Y-101070600D01*
X211016040Y-101142028D01*
X211158897Y-101213457D01*
X211658897Y-101213457D01*
X210301754Y-100499171D02*
X209373182Y-100499171D01*
X209873182Y-101070600D01*
X209658897Y-101070600D01*
X209516040Y-101142028D01*
X209444611Y-101213457D01*
X209373182Y-101356314D01*
X209373182Y-101713457D01*
X209444611Y-101856314D01*
X209516040Y-101927742D01*
X209658897Y-101999171D01*
X210087468Y-101999171D01*
X210230325Y-101927742D01*
X210301754Y-101856314D01*
X208658897Y-101999171D02*
X208373182Y-101999171D01*
X208230325Y-101927742D01*
X208158897Y-101856314D01*
X208016040Y-101642028D01*
X207944611Y-101356314D01*
X207944611Y-100784885D01*
X208016040Y-100642028D01*
X208087468Y-100570600D01*
X208230325Y-100499171D01*
X208516040Y-100499171D01*
X208658897Y-100570600D01*
X208730325Y-100642028D01*
X208801754Y-100784885D01*
X208801754Y-101142028D01*
X208730325Y-101284885D01*
X208658897Y-101356314D01*
X208516040Y-101427742D01*
X208230325Y-101427742D01*
X208087468Y-101356314D01*
X208016040Y-101284885D01*
X207944611Y-101142028D01*
X207373182Y-100642028D02*
X207301754Y-100570600D01*
X207158897Y-100499171D01*
X206801754Y-100499171D01*
X206658897Y-100570600D01*
X206587468Y-100642028D01*
X206516040Y-100784885D01*
X206516040Y-100927742D01*
X206587468Y-101142028D01*
X207444611Y-101999171D01*
X206516040Y-101999171D01*
X205230325Y-100999171D02*
X205230325Y-101999171D01*
X205587468Y-100427742D02*
X205944611Y-101499171D01*
X205016040Y-101499171D01*
X204516040Y-100642028D02*
X204444611Y-100570600D01*
X204301754Y-100499171D01*
X203944611Y-100499171D01*
X203801754Y-100570600D01*
X203730325Y-100642028D01*
X203658897Y-100784885D01*
X203658897Y-100927742D01*
X203730325Y-101142028D01*
X204587468Y-101999171D01*
X203658897Y-101999171D01*
X202516040Y-101213457D02*
X202301754Y-101284885D01*
X202230325Y-101356314D01*
X202158897Y-101499171D01*
X202158897Y-101713457D01*
X202230325Y-101856314D01*
X202301754Y-101927742D01*
X202444611Y-101999171D01*
X203016040Y-101999171D01*
X203016040Y-100499171D01*
X202516040Y-100499171D01*
X202373182Y-100570600D01*
X202301754Y-100642028D01*
X202230325Y-100784885D01*
X202230325Y-100927742D01*
X202301754Y-101070600D01*
X202373182Y-101142028D01*
X202516040Y-101213457D01*
X203016040Y-101213457D01*
X200873182Y-100999171D02*
X200873182Y-101999171D01*
X201230325Y-100427742D02*
X201587468Y-101499171D01*
X200658897Y-101499171D01*
X200230325Y-100499171D02*
X199301754Y-100499171D01*
X199801754Y-101070600D01*
X199587468Y-101070600D01*
X199444611Y-101142028D01*
X199373182Y-101213457D01*
X199301754Y-101356314D01*
X199301754Y-101713457D01*
X199373182Y-101856314D01*
X199444611Y-101927742D01*
X199587468Y-101999171D01*
X200016040Y-101999171D01*
X200158897Y-101927742D01*
X200230325Y-101856314D01*
X198016040Y-100499171D02*
X198301754Y-100499171D01*
X198444611Y-100570600D01*
X198516040Y-100642028D01*
X198658897Y-100856314D01*
X198730325Y-101142028D01*
X198730325Y-101713457D01*
X198658897Y-101856314D01*
X198587468Y-101927742D01*
X198444611Y-101999171D01*
X198158897Y-101999171D01*
X198016040Y-101927742D01*
X197944611Y-101856314D01*
X197873182Y-101713457D01*
X197873182Y-101356314D01*
X197944611Y-101213457D01*
X198016040Y-101142028D01*
X198158897Y-101070600D01*
X198444611Y-101070600D01*
X198587468Y-101142028D01*
X198658897Y-101213457D01*
X198730325Y-101356314D01*
X196944611Y-100499171D02*
X196801754Y-100499171D01*
X196658897Y-100570600D01*
X196587468Y-100642028D01*
X196516040Y-100784885D01*
X196444611Y-101070600D01*
X196444611Y-101427742D01*
X196516040Y-101713457D01*
X196587468Y-101856314D01*
X196658897Y-101927742D01*
X196801754Y-101999171D01*
X196944611Y-101999171D01*
X197087468Y-101927742D01*
X197158897Y-101856314D01*
X197230325Y-101713457D01*
X197301754Y-101427742D01*
X197301754Y-101070600D01*
X197230325Y-100784885D01*
X197158897Y-100642028D01*
X197087468Y-100570600D01*
X196944611Y-100499171D01*
X195801754Y-101999171D02*
X195801754Y-100499171D01*
X195230325Y-100499171D01*
X195087468Y-100570600D01*
X195016040Y-100642028D01*
X194944611Y-100784885D01*
X194944611Y-100999171D01*
X195016040Y-101142028D01*
X195087468Y-101213457D01*
X195230325Y-101284885D01*
X195801754Y-101284885D01*
X194087468Y-101142028D02*
X194230325Y-101070600D01*
X194301754Y-100999171D01*
X194373182Y-100856314D01*
X194373182Y-100784885D01*
X194301754Y-100642028D01*
X194230325Y-100570600D01*
X194087468Y-100499171D01*
X193801754Y-100499171D01*
X193658897Y-100570600D01*
X193587468Y-100642028D01*
X193516040Y-100784885D01*
X193516040Y-100856314D01*
X193587468Y-100999171D01*
X193658897Y-101070600D01*
X193801754Y-101142028D01*
X194087468Y-101142028D01*
X194230325Y-101213457D01*
X194301754Y-101284885D01*
X194373182Y-101427742D01*
X194373182Y-101713457D01*
X194301754Y-101856314D01*
X194230325Y-101927742D01*
X194087468Y-101999171D01*
X193801754Y-101999171D01*
X193658897Y-101927742D01*
X193587468Y-101856314D01*
X193516040Y-101713457D01*
X193516040Y-101427742D01*
X193587468Y-101284885D01*
X193658897Y-101213457D01*
X193801754Y-101142028D01*
X192087468Y-101999171D02*
X192944611Y-101999171D01*
X192516040Y-101999171D02*
X192516040Y-100499171D01*
X192658897Y-100713457D01*
X192801754Y-100856314D01*
X192944611Y-100927742D01*
X191158897Y-100499171D02*
X191016040Y-100499171D01*
X190873182Y-100570600D01*
X190801754Y-100642028D01*
X190730325Y-100784885D01*
X190658897Y-101070600D01*
X190658897Y-101427742D01*
X190730325Y-101713457D01*
X190801754Y-101856314D01*
X190873182Y-101927742D01*
X191016040Y-101999171D01*
X191158897Y-101999171D01*
X191301754Y-101927742D01*
X191373182Y-101856314D01*
X191444611Y-101713457D01*
X191516040Y-101427742D01*
X191516040Y-101070600D01*
X191444611Y-100784885D01*
X191373182Y-100642028D01*
X191301754Y-100570600D01*
X191158897Y-100499171D01*
X221926714Y-104534091D02*
X221926714Y-103034091D01*
X220355285Y-104391234D02*
X220426714Y-104462662D01*
X220641000Y-104534091D01*
X220783857Y-104534091D01*
X220998142Y-104462662D01*
X221141000Y-104319805D01*
X221212428Y-104176948D01*
X221283857Y-103891234D01*
X221283857Y-103676948D01*
X221212428Y-103391234D01*
X221141000Y-103248377D01*
X220998142Y-103105520D01*
X220783857Y-103034091D01*
X220641000Y-103034091D01*
X220426714Y-103105520D01*
X220355285Y-103176948D01*
X218926714Y-104534091D02*
X219783857Y-104534091D01*
X219355285Y-104534091D02*
X219355285Y-103034091D01*
X219498142Y-103248377D01*
X219641000Y-103391234D01*
X219783857Y-103462662D01*
X218212428Y-104462662D02*
X218212428Y-104534091D01*
X218283857Y-104676948D01*
X218355285Y-104748377D01*
X216426714Y-104534091D02*
X216426714Y-103034091D01*
X214855285Y-104391234D02*
X214926714Y-104462662D01*
X215141000Y-104534091D01*
X215283857Y-104534091D01*
X215498142Y-104462662D01*
X215641000Y-104319805D01*
X215712428Y-104176948D01*
X215783857Y-103891234D01*
X215783857Y-103676948D01*
X215712428Y-103391234D01*
X215641000Y-103248377D01*
X215498142Y-103105520D01*
X215283857Y-103034091D01*
X215141000Y-103034091D01*
X214926714Y-103105520D01*
X214855285Y-103176948D01*
X214283857Y-103176948D02*
X214212428Y-103105520D01*
X214069571Y-103034091D01*
X213712428Y-103034091D01*
X213569571Y-103105520D01*
X213498142Y-103176948D01*
X213426714Y-103319805D01*
X213426714Y-103462662D01*
X213498142Y-103676948D01*
X214355285Y-104534091D01*
X213426714Y-104534091D01*
X211641000Y-104534091D02*
X211641000Y-103034091D01*
X211141000Y-104105520D01*
X210641000Y-103034091D01*
X210641000Y-104534091D01*
X209926714Y-104534091D02*
X209926714Y-103034091D01*
X209355285Y-103034091D01*
X209212428Y-103105520D01*
X209141000Y-103176948D01*
X209069571Y-103319805D01*
X209069571Y-103534091D01*
X209141000Y-103676948D01*
X209212428Y-103748377D01*
X209355285Y-103819805D01*
X209926714Y-103819805D01*
X207641000Y-104534091D02*
X208498142Y-104534091D01*
X208069571Y-104534091D02*
X208069571Y-103034091D01*
X208212428Y-103248377D01*
X208355285Y-103391234D01*
X208498142Y-103462662D01*
X206283857Y-103034091D02*
X206998142Y-103034091D01*
X207069571Y-103748377D01*
X206998142Y-103676948D01*
X206855285Y-103605520D01*
X206498142Y-103605520D01*
X206355285Y-103676948D01*
X206283857Y-103748377D01*
X206212428Y-103891234D01*
X206212428Y-104248377D01*
X206283857Y-104391234D01*
X206355285Y-104462662D01*
X206498142Y-104534091D01*
X206855285Y-104534091D01*
X206998142Y-104462662D01*
X207069571Y-104391234D01*
X205355285Y-103676948D02*
X205498142Y-103605520D01*
X205569571Y-103534091D01*
X205641000Y-103391234D01*
X205641000Y-103319805D01*
X205569571Y-103176948D01*
X205498142Y-103105520D01*
X205355285Y-103034091D01*
X205069571Y-103034091D01*
X204926714Y-103105520D01*
X204855285Y-103176948D01*
X204783857Y-103319805D01*
X204783857Y-103391234D01*
X204855285Y-103534091D01*
X204926714Y-103605520D01*
X205069571Y-103676948D01*
X205355285Y-103676948D01*
X205498142Y-103748377D01*
X205569571Y-103819805D01*
X205641000Y-103962662D01*
X205641000Y-104248377D01*
X205569571Y-104391234D01*
X205498142Y-104462662D01*
X205355285Y-104534091D01*
X205069571Y-104534091D01*
X204926714Y-104462662D01*
X204855285Y-104391234D01*
X204783857Y-104248377D01*
X204783857Y-103962662D01*
X204855285Y-103819805D01*
X204926714Y-103748377D01*
X205069571Y-103676948D01*
X203498142Y-103534091D02*
X203498142Y-104534091D01*
X203855285Y-102962662D02*
X204212428Y-104034091D01*
X203283857Y-104034091D01*
X202712428Y-103748377D02*
X202212428Y-103748377D01*
X201998142Y-104534091D02*
X202712428Y-104534091D01*
X202712428Y-103034091D01*
X201998142Y-103034091D01*
X201355285Y-104534091D02*
X201355285Y-103034091D01*
X200498142Y-104534091D01*
X200498142Y-103034091D01*
X199783857Y-103962662D02*
X198641000Y-103962662D01*
X197212428Y-104534091D02*
X197926714Y-104534091D01*
X197926714Y-103034091D01*
X196212428Y-103748377D02*
X196712428Y-103748377D01*
X196712428Y-104534091D02*
X196712428Y-103034091D01*
X195998142Y-103034091D01*
X195426714Y-103962662D02*
X194283857Y-103962662D01*
X193712428Y-103034091D02*
X192712428Y-103034091D01*
X193712428Y-104534091D01*
X192712428Y-104534091D01*
D13*
X165605460Y-57480200D02*
X178366420Y-57480200D01*
X165605460Y-71348600D02*
X165605460Y-57480200D01*
X223540320Y-71348600D02*
X165605460Y-71348600D01*
X223540320Y-57426860D02*
X223540320Y-71348600D01*
X178330860Y-57426860D02*
X223540320Y-57426860D01*
X211307680Y-71353680D02*
X211307680Y-57429400D01*
D14*
X218716840Y-72264611D02*
X218716840Y-72621754D01*
X219073982Y-72478897D02*
X218716840Y-72621754D01*
X218359697Y-72478897D01*
X218931125Y-72907468D02*
X218716840Y-72621754D01*
X218502554Y-72907468D01*
X217788268Y-73764611D02*
X217788268Y-72264611D01*
X216931125Y-73764611D02*
X217573982Y-72907468D01*
X216931125Y-72264611D02*
X217788268Y-73121754D01*
X215716840Y-73693182D02*
X215859697Y-73764611D01*
X216145411Y-73764611D01*
X216288268Y-73693182D01*
X216359697Y-73550325D01*
X216359697Y-72978897D01*
X216288268Y-72836040D01*
X216145411Y-72764611D01*
X215859697Y-72764611D01*
X215716840Y-72836040D01*
X215645411Y-72978897D01*
X215645411Y-73121754D01*
X216359697Y-73264611D01*
X214431125Y-73693182D02*
X214573982Y-73764611D01*
X214859697Y-73764611D01*
X215002554Y-73693182D01*
X215073982Y-73550325D01*
X215073982Y-72978897D01*
X215002554Y-72836040D01*
X214859697Y-72764611D01*
X214573982Y-72764611D01*
X214431125Y-72836040D01*
X214359697Y-72978897D01*
X214359697Y-73121754D01*
X215073982Y-73264611D01*
X213716840Y-72764611D02*
X213716840Y-74264611D01*
X213716840Y-72836040D02*
X213573982Y-72764611D01*
X213288268Y-72764611D01*
X213145411Y-72836040D01*
X213073982Y-72907468D01*
X213002554Y-73050325D01*
X213002554Y-73478897D01*
X213073982Y-73621754D01*
X213145411Y-73693182D01*
X213288268Y-73764611D01*
X213573982Y-73764611D01*
X213716840Y-73693182D01*
X210788268Y-72264611D02*
X210788268Y-73336040D01*
X210859697Y-73550325D01*
X211002554Y-73693182D01*
X211216840Y-73764611D01*
X211359697Y-73764611D01*
X210216840Y-72264611D02*
X209216840Y-72264611D01*
X209859697Y-73764611D01*
X207573982Y-73693182D02*
X207431125Y-73764611D01*
X207145411Y-73764611D01*
X207002554Y-73693182D01*
X206931125Y-73550325D01*
X206931125Y-73478897D01*
X207002554Y-73336040D01*
X207145411Y-73264611D01*
X207359697Y-73264611D01*
X207502554Y-73193182D01*
X207573982Y-73050325D01*
X207573982Y-72978897D01*
X207502554Y-72836040D01*
X207359697Y-72764611D01*
X207145411Y-72764611D01*
X207002554Y-72836040D01*
X206288268Y-73764611D02*
X206288268Y-72264611D01*
X205645411Y-73764611D02*
X205645411Y-72978897D01*
X205716840Y-72836040D01*
X205859697Y-72764611D01*
X206073982Y-72764611D01*
X206216840Y-72836040D01*
X206288268Y-72907468D01*
X204716840Y-73764611D02*
X204859697Y-73693182D01*
X204931125Y-73621754D01*
X205002554Y-73478897D01*
X205002554Y-73050325D01*
X204931125Y-72907468D01*
X204859697Y-72836040D01*
X204716840Y-72764611D01*
X204502554Y-72764611D01*
X204359697Y-72836040D01*
X204288268Y-72907468D01*
X204216840Y-73050325D01*
X204216840Y-73478897D01*
X204288268Y-73621754D01*
X204359697Y-73693182D01*
X204502554Y-73764611D01*
X204716840Y-73764611D01*
X203573982Y-73764611D02*
X203573982Y-72764611D01*
X203573982Y-73050325D02*
X203502554Y-72907468D01*
X203431125Y-72836040D01*
X203288268Y-72764611D01*
X203145411Y-72764611D01*
X202859697Y-72764611D02*
X202288268Y-72764611D01*
X202645411Y-72264611D02*
X202645411Y-73550325D01*
X202573982Y-73693182D01*
X202431125Y-73764611D01*
X202288268Y-73764611D01*
X201216840Y-73693182D02*
X201359697Y-73764611D01*
X201645411Y-73764611D01*
X201788268Y-73693182D01*
X201859697Y-73550325D01*
X201859697Y-72978897D01*
X201788268Y-72836040D01*
X201645411Y-72764611D01*
X201359697Y-72764611D01*
X201216840Y-72836040D01*
X201145411Y-72978897D01*
X201145411Y-73121754D01*
X201859697Y-73264611D01*
X199859697Y-73764611D02*
X199859697Y-72264611D01*
X199859697Y-73693182D02*
X200002554Y-73764611D01*
X200288268Y-73764611D01*
X200431125Y-73693182D01*
X200502554Y-73621754D01*
X200573982Y-73478897D01*
X200573982Y-73050325D01*
X200502554Y-72907468D01*
X200431125Y-72836040D01*
X200288268Y-72764611D01*
X200002554Y-72764611D01*
X199859697Y-72836040D01*
X198216840Y-72764611D02*
X197645411Y-72764611D01*
X198002554Y-72264611D02*
X198002554Y-73550325D01*
X197931125Y-73693182D01*
X197788268Y-73764611D01*
X197645411Y-73764611D01*
X196931125Y-73764611D02*
X197073982Y-73693182D01*
X197145411Y-73621754D01*
X197216840Y-73478897D01*
X197216840Y-73050325D01*
X197145411Y-72907468D01*
X197073982Y-72836040D01*
X196931125Y-72764611D01*
X196716840Y-72764611D01*
X196573982Y-72836040D01*
X196502554Y-72907468D01*
X196431125Y-73050325D01*
X196431125Y-73478897D01*
X196502554Y-73621754D01*
X196573982Y-73693182D01*
X196716840Y-73764611D01*
X196931125Y-73764611D01*
X194002554Y-72764611D02*
X194002554Y-73978897D01*
X194073982Y-74121754D01*
X194145411Y-74193182D01*
X194288268Y-74264611D01*
X194502554Y-74264611D01*
X194645411Y-74193182D01*
X194002554Y-73693182D02*
X194145411Y-73764611D01*
X194431125Y-73764611D01*
X194573982Y-73693182D01*
X194645411Y-73621754D01*
X194716840Y-73478897D01*
X194716840Y-73050325D01*
X194645411Y-72907468D01*
X194573982Y-72836040D01*
X194431125Y-72764611D01*
X194145411Y-72764611D01*
X194002554Y-72836040D01*
X193288268Y-73764611D02*
X193288268Y-72764611D01*
X193288268Y-73050325D02*
X193216840Y-72907468D01*
X193145411Y-72836040D01*
X193002554Y-72764611D01*
X192859697Y-72764611D01*
X192145411Y-73764611D02*
X192288268Y-73693182D01*
X192359697Y-73621754D01*
X192431125Y-73478897D01*
X192431125Y-73050325D01*
X192359697Y-72907468D01*
X192288268Y-72836040D01*
X192145411Y-72764611D01*
X191931125Y-72764611D01*
X191788268Y-72836040D01*
X191716840Y-72907468D01*
X191645411Y-73050325D01*
X191645411Y-73478897D01*
X191716840Y-73621754D01*
X191788268Y-73693182D01*
X191931125Y-73764611D01*
X192145411Y-73764611D01*
X190359697Y-72764611D02*
X190359697Y-73764611D01*
X191002554Y-72764611D02*
X191002554Y-73550325D01*
X190931125Y-73693182D01*
X190788268Y-73764611D01*
X190573982Y-73764611D01*
X190431125Y-73693182D01*
X190359697Y-73621754D01*
X189645411Y-72764611D02*
X189645411Y-73764611D01*
X189645411Y-72907468D02*
X189573982Y-72836040D01*
X189431125Y-72764611D01*
X189216840Y-72764611D01*
X189073982Y-72836040D01*
X189002554Y-72978897D01*
X189002554Y-73764611D01*
X187645411Y-73764611D02*
X187645411Y-72264611D01*
X187645411Y-73693182D02*
X187788268Y-73764611D01*
X188073982Y-73764611D01*
X188216840Y-73693182D01*
X188288268Y-73621754D01*
X188359697Y-73478897D01*
X188359697Y-73050325D01*
X188288268Y-72907468D01*
X188216840Y-72836040D01*
X188073982Y-72764611D01*
X187788268Y-72764611D01*
X187645411Y-72836040D01*
X185788268Y-73764611D02*
X185788268Y-72264611D01*
X185788268Y-72836040D02*
X185645411Y-72764611D01*
X185359697Y-72764611D01*
X185216840Y-72836040D01*
X185145411Y-72907468D01*
X185073982Y-73050325D01*
X185073982Y-73478897D01*
X185145411Y-73621754D01*
X185216840Y-73693182D01*
X185359697Y-73764611D01*
X185645411Y-73764611D01*
X185788268Y-73693182D01*
X184573982Y-72764611D02*
X184216840Y-73764611D01*
X183859697Y-72764611D02*
X184216840Y-73764611D01*
X184359697Y-74121754D01*
X184431125Y-74193182D01*
X184573982Y-74264611D01*
X181502554Y-73764611D02*
X181502554Y-72264611D01*
X181502554Y-73693182D02*
X181645411Y-73764611D01*
X181931125Y-73764611D01*
X182073982Y-73693182D01*
X182145411Y-73621754D01*
X182216840Y-73478897D01*
X182216840Y-73050325D01*
X182145411Y-72907468D01*
X182073982Y-72836040D01*
X181931125Y-72764611D01*
X181645411Y-72764611D01*
X181502554Y-72836040D01*
X180216840Y-73693182D02*
X180359697Y-73764611D01*
X180645411Y-73764611D01*
X180788268Y-73693182D01*
X180859697Y-73550325D01*
X180859697Y-72978897D01*
X180788268Y-72836040D01*
X180645411Y-72764611D01*
X180359697Y-72764611D01*
X180216840Y-72836040D01*
X180145411Y-72978897D01*
X180145411Y-73121754D01*
X180859697Y-73264611D01*
X179716840Y-72764611D02*
X179145411Y-72764611D01*
X179502554Y-73764611D02*
X179502554Y-72478897D01*
X179431125Y-72336040D01*
X179288268Y-72264611D01*
X179145411Y-72264611D01*
X178002554Y-73764611D02*
X178002554Y-72978897D01*
X178073982Y-72836040D01*
X178216840Y-72764611D01*
X178502554Y-72764611D01*
X178645411Y-72836040D01*
X178002554Y-73693182D02*
X178145411Y-73764611D01*
X178502554Y-73764611D01*
X178645411Y-73693182D01*
X178716840Y-73550325D01*
X178716840Y-73407468D01*
X178645411Y-73264611D01*
X178502554Y-73193182D01*
X178145411Y-73193182D01*
X178002554Y-73121754D01*
X176645411Y-72764611D02*
X176645411Y-73764611D01*
X177288268Y-72764611D02*
X177288268Y-73550325D01*
X177216840Y-73693182D01*
X177073982Y-73764611D01*
X176859697Y-73764611D01*
X176716840Y-73693182D01*
X176645411Y-73621754D01*
X175716840Y-73764611D02*
X175859697Y-73693182D01*
X175931125Y-73550325D01*
X175931125Y-72264611D01*
X175359697Y-72764611D02*
X174788268Y-72764611D01*
X175145411Y-72264611D02*
X175145411Y-73550325D01*
X175073982Y-73693182D01*
X174931125Y-73764611D01*
X174788268Y-73764611D01*
X218252554Y-75314611D02*
X217966840Y-76314611D01*
X217681125Y-75600325D01*
X217395411Y-76314611D01*
X217109697Y-75314611D01*
X216538268Y-76314611D02*
X216538268Y-74814611D01*
X215895411Y-76314611D02*
X215895411Y-75528897D01*
X215966840Y-75386040D01*
X216109697Y-75314611D01*
X216323982Y-75314611D01*
X216466840Y-75386040D01*
X216538268Y-75457468D01*
X214609697Y-76243182D02*
X214752554Y-76314611D01*
X215038268Y-76314611D01*
X215181125Y-76243182D01*
X215252554Y-76100325D01*
X215252554Y-75528897D01*
X215181125Y-75386040D01*
X215038268Y-75314611D01*
X214752554Y-75314611D01*
X214609697Y-75386040D01*
X214538268Y-75528897D01*
X214538268Y-75671754D01*
X215252554Y-75814611D01*
X213895411Y-75314611D02*
X213895411Y-76314611D01*
X213895411Y-75457468D02*
X213823982Y-75386040D01*
X213681125Y-75314611D01*
X213466840Y-75314611D01*
X213323982Y-75386040D01*
X213252554Y-75528897D01*
X213252554Y-76314611D01*
X211395411Y-75314611D02*
X211395411Y-76314611D01*
X211395411Y-75457468D02*
X211323982Y-75386040D01*
X211181125Y-75314611D01*
X210966840Y-75314611D01*
X210823982Y-75386040D01*
X210752554Y-75528897D01*
X210752554Y-76314611D01*
X209823982Y-76314611D02*
X209966840Y-76243182D01*
X210038268Y-76171754D01*
X210109697Y-76028897D01*
X210109697Y-75600325D01*
X210038268Y-75457468D01*
X209966840Y-75386040D01*
X209823982Y-75314611D01*
X209609697Y-75314611D01*
X209466840Y-75386040D01*
X209395411Y-75457468D01*
X209323982Y-75600325D01*
X209323982Y-76028897D01*
X209395411Y-76171754D01*
X209466840Y-76243182D01*
X209609697Y-76314611D01*
X209823982Y-76314611D01*
X208895411Y-75314611D02*
X208323982Y-75314611D01*
X208681125Y-74814611D02*
X208681125Y-76100325D01*
X208609697Y-76243182D01*
X208466840Y-76314611D01*
X208323982Y-76314611D01*
X206038268Y-75314611D02*
X206038268Y-76314611D01*
X206681125Y-75314611D02*
X206681125Y-76100325D01*
X206609697Y-76243182D01*
X206466840Y-76314611D01*
X206252554Y-76314611D01*
X206109697Y-76243182D01*
X206038268Y-76171754D01*
X205395411Y-76243182D02*
X205252554Y-76314611D01*
X204966840Y-76314611D01*
X204823982Y-76243182D01*
X204752554Y-76100325D01*
X204752554Y-76028897D01*
X204823982Y-75886040D01*
X204966840Y-75814611D01*
X205181125Y-75814611D01*
X205323982Y-75743182D01*
X205395411Y-75600325D01*
X205395411Y-75528897D01*
X205323982Y-75386040D01*
X205181125Y-75314611D01*
X204966840Y-75314611D01*
X204823982Y-75386040D01*
X204109697Y-76314611D02*
X204109697Y-75314611D01*
X204109697Y-74814611D02*
X204181125Y-74886040D01*
X204109697Y-74957468D01*
X204038268Y-74886040D01*
X204109697Y-74814611D01*
X204109697Y-74957468D01*
X203395411Y-75314611D02*
X203395411Y-76314611D01*
X203395411Y-75457468D02*
X203323982Y-75386040D01*
X203181125Y-75314611D01*
X202966840Y-75314611D01*
X202823982Y-75386040D01*
X202752554Y-75528897D01*
X202752554Y-76314611D01*
X201395411Y-75314611D02*
X201395411Y-76528897D01*
X201466840Y-76671754D01*
X201538268Y-76743182D01*
X201681125Y-76814611D01*
X201895411Y-76814611D01*
X202038268Y-76743182D01*
X201395411Y-76243182D02*
X201538268Y-76314611D01*
X201823982Y-76314611D01*
X201966840Y-76243182D01*
X202038268Y-76171754D01*
X202109697Y-76028897D01*
X202109697Y-75600325D01*
X202038268Y-75457468D01*
X201966840Y-75386040D01*
X201823982Y-75314611D01*
X201538268Y-75314611D01*
X201395411Y-75386040D01*
X199609697Y-76243182D02*
X199466840Y-76314611D01*
X199181125Y-76314611D01*
X199038268Y-76243182D01*
X198966840Y-76100325D01*
X198966840Y-76028897D01*
X199038268Y-75886040D01*
X199181125Y-75814611D01*
X199395411Y-75814611D01*
X199538268Y-75743182D01*
X199609697Y-75600325D01*
X199609697Y-75528897D01*
X199538268Y-75386040D01*
X199395411Y-75314611D01*
X199181125Y-75314611D01*
X199038268Y-75386040D01*
X197752554Y-76243182D02*
X197895411Y-76314611D01*
X198181125Y-76314611D01*
X198323982Y-76243182D01*
X198395411Y-76100325D01*
X198395411Y-75528897D01*
X198323982Y-75386040D01*
X198181125Y-75314611D01*
X197895411Y-75314611D01*
X197752554Y-75386040D01*
X197681125Y-75528897D01*
X197681125Y-75671754D01*
X198395411Y-75814611D01*
X197038268Y-76314611D02*
X197038268Y-75314611D01*
X197038268Y-75600325D02*
X196966840Y-75457468D01*
X196895411Y-75386040D01*
X196752554Y-75314611D01*
X196609697Y-75314611D01*
X196109697Y-76314611D02*
X196109697Y-75314611D01*
X196109697Y-74814611D02*
X196181125Y-74886040D01*
X196109697Y-74957468D01*
X196038268Y-74886040D01*
X196109697Y-74814611D01*
X196109697Y-74957468D01*
X194752554Y-76314611D02*
X194752554Y-75528897D01*
X194823982Y-75386040D01*
X194966840Y-75314611D01*
X195252554Y-75314611D01*
X195395411Y-75386040D01*
X194752554Y-76243182D02*
X194895411Y-76314611D01*
X195252554Y-76314611D01*
X195395411Y-76243182D01*
X195466840Y-76100325D01*
X195466840Y-75957468D01*
X195395411Y-75814611D01*
X195252554Y-75743182D01*
X194895411Y-75743182D01*
X194752554Y-75671754D01*
X193823982Y-76314611D02*
X193966840Y-76243182D01*
X194038268Y-76100325D01*
X194038268Y-74814611D01*
X191466840Y-76243182D02*
X191609697Y-76314611D01*
X191895411Y-76314611D01*
X192038268Y-76243182D01*
X192109697Y-76171754D01*
X192181125Y-76028897D01*
X192181125Y-75600325D01*
X192109697Y-75457468D01*
X192038268Y-75386040D01*
X191895411Y-75314611D01*
X191609697Y-75314611D01*
X191466840Y-75386040D01*
X190609697Y-76314611D02*
X190752554Y-76243182D01*
X190823982Y-76171754D01*
X190895411Y-76028897D01*
X190895411Y-75600325D01*
X190823982Y-75457468D01*
X190752554Y-75386040D01*
X190609697Y-75314611D01*
X190395411Y-75314611D01*
X190252554Y-75386040D01*
X190181125Y-75457468D01*
X190109697Y-75600325D01*
X190109697Y-76028897D01*
X190181125Y-76171754D01*
X190252554Y-76243182D01*
X190395411Y-76314611D01*
X190609697Y-76314611D01*
X189466840Y-76314611D02*
X189466840Y-75314611D01*
X189466840Y-75457468D02*
X189395411Y-75386040D01*
X189252554Y-75314611D01*
X189038268Y-75314611D01*
X188895411Y-75386040D01*
X188823982Y-75528897D01*
X188823982Y-76314611D01*
X188823982Y-75528897D02*
X188752554Y-75386040D01*
X188609697Y-75314611D01*
X188395411Y-75314611D01*
X188252554Y-75386040D01*
X188181125Y-75528897D01*
X188181125Y-76314611D01*
X187466840Y-76314611D02*
X187466840Y-75314611D01*
X187466840Y-75457468D02*
X187395411Y-75386040D01*
X187252554Y-75314611D01*
X187038268Y-75314611D01*
X186895411Y-75386040D01*
X186823982Y-75528897D01*
X186823982Y-76314611D01*
X186823982Y-75528897D02*
X186752554Y-75386040D01*
X186609697Y-75314611D01*
X186395411Y-75314611D01*
X186252554Y-75386040D01*
X186181125Y-75528897D01*
X186181125Y-76314611D01*
X184823982Y-75314611D02*
X184823982Y-76314611D01*
X185466840Y-75314611D02*
X185466840Y-76100325D01*
X185395411Y-76243182D01*
X185252554Y-76314611D01*
X185038268Y-76314611D01*
X184895411Y-76243182D01*
X184823982Y-76171754D01*
X184109697Y-75314611D02*
X184109697Y-76314611D01*
X184109697Y-75457468D02*
X184038268Y-75386040D01*
X183895411Y-75314611D01*
X183681125Y-75314611D01*
X183538268Y-75386040D01*
X183466840Y-75528897D01*
X183466840Y-76314611D01*
X182752554Y-76314611D02*
X182752554Y-75314611D01*
X182752554Y-74814611D02*
X182823982Y-74886040D01*
X182752554Y-74957468D01*
X182681125Y-74886040D01*
X182752554Y-74814611D01*
X182752554Y-74957468D01*
X181395411Y-76243182D02*
X181538268Y-76314611D01*
X181823982Y-76314611D01*
X181966840Y-76243182D01*
X182038268Y-76171754D01*
X182109697Y-76028897D01*
X182109697Y-75600325D01*
X182038268Y-75457468D01*
X181966840Y-75386040D01*
X181823982Y-75314611D01*
X181538268Y-75314611D01*
X181395411Y-75386040D01*
X180109697Y-76314611D02*
X180109697Y-75528897D01*
X180181125Y-75386040D01*
X180323982Y-75314611D01*
X180609697Y-75314611D01*
X180752554Y-75386040D01*
X180109697Y-76243182D02*
X180252554Y-76314611D01*
X180609697Y-76314611D01*
X180752554Y-76243182D01*
X180823982Y-76100325D01*
X180823982Y-75957468D01*
X180752554Y-75814611D01*
X180609697Y-75743182D01*
X180252554Y-75743182D01*
X180109697Y-75671754D01*
X179609697Y-75314611D02*
X179038268Y-75314611D01*
X179395411Y-74814611D02*
X179395411Y-76100325D01*
X179323982Y-76243182D01*
X179181125Y-76314611D01*
X179038268Y-76314611D01*
X178538268Y-76314611D02*
X178538268Y-75314611D01*
X178538268Y-74814611D02*
X178609697Y-74886040D01*
X178538268Y-74957468D01*
X178466840Y-74886040D01*
X178538268Y-74814611D01*
X178538268Y-74957468D01*
X177609697Y-76314611D02*
X177752554Y-76243182D01*
X177823982Y-76171754D01*
X177895411Y-76028897D01*
X177895411Y-75600325D01*
X177823982Y-75457468D01*
X177752554Y-75386040D01*
X177609697Y-75314611D01*
X177395411Y-75314611D01*
X177252554Y-75386040D01*
X177181125Y-75457468D01*
X177109697Y-75600325D01*
X177109697Y-76028897D01*
X177181125Y-76171754D01*
X177252554Y-76243182D01*
X177395411Y-76314611D01*
X177609697Y-76314611D01*
X176466840Y-75314611D02*
X176466840Y-76314611D01*
X176466840Y-75457468D02*
X176395411Y-75386040D01*
X176252554Y-75314611D01*
X176038268Y-75314611D01*
X175895411Y-75386040D01*
X175823982Y-75528897D01*
X175823982Y-76314611D01*
X217893502Y-58487571D02*
X217893502Y-59559000D01*
X217964931Y-59773285D01*
X218107788Y-59916142D01*
X218322074Y-59987571D01*
X218464931Y-59987571D01*
X216536360Y-58487571D02*
X216822074Y-58487571D01*
X216964931Y-58559000D01*
X217036360Y-58630428D01*
X217179217Y-58844714D01*
X217250645Y-59130428D01*
X217250645Y-59701857D01*
X217179217Y-59844714D01*
X217107788Y-59916142D01*
X216964931Y-59987571D01*
X216679217Y-59987571D01*
X216536360Y-59916142D01*
X216464931Y-59844714D01*
X216393502Y-59701857D01*
X216393502Y-59344714D01*
X216464931Y-59201857D01*
X216536360Y-59130428D01*
X216679217Y-59059000D01*
X216964931Y-59059000D01*
X217107788Y-59130428D01*
X217179217Y-59201857D01*
X217250645Y-59344714D01*
X215679217Y-59916142D02*
X215679217Y-59987571D01*
X215750645Y-60130428D01*
X215822074Y-60201857D01*
X213464931Y-58487571D02*
X213464931Y-59559000D01*
X213536360Y-59773285D01*
X213679217Y-59916142D01*
X213893502Y-59987571D01*
X214036360Y-59987571D01*
X212893502Y-58487571D02*
X211893502Y-58487571D01*
X212536360Y-59987571D01*
X210250645Y-59916142D02*
X210036360Y-59987571D01*
X209679217Y-59987571D01*
X209536360Y-59916142D01*
X209464931Y-59844714D01*
X209393502Y-59701857D01*
X209393502Y-59559000D01*
X209464931Y-59416142D01*
X209536360Y-59344714D01*
X209679217Y-59273285D01*
X209964931Y-59201857D01*
X210107788Y-59130428D01*
X210179217Y-59059000D01*
X210250645Y-58916142D01*
X210250645Y-58773285D01*
X210179217Y-58630428D01*
X210107788Y-58559000D01*
X209964931Y-58487571D01*
X209607788Y-58487571D01*
X209393502Y-58559000D01*
X208179217Y-59916142D02*
X208322074Y-59987571D01*
X208607788Y-59987571D01*
X208750645Y-59916142D01*
X208822074Y-59773285D01*
X208822074Y-59201857D01*
X208750645Y-59059000D01*
X208607788Y-58987571D01*
X208322074Y-58987571D01*
X208179217Y-59059000D01*
X208107788Y-59201857D01*
X208107788Y-59344714D01*
X208822074Y-59487571D01*
X207464931Y-59987571D02*
X207464931Y-58987571D01*
X207464931Y-59273285D02*
X207393502Y-59130428D01*
X207322074Y-59059000D01*
X207179217Y-58987571D01*
X207036360Y-58987571D01*
X206536360Y-59987571D02*
X206536360Y-58987571D01*
X206536360Y-58487571D02*
X206607788Y-58559000D01*
X206536360Y-58630428D01*
X206464931Y-58559000D01*
X206536360Y-58487571D01*
X206536360Y-58630428D01*
X205179217Y-59987571D02*
X205179217Y-59201857D01*
X205250645Y-59059000D01*
X205393502Y-58987571D01*
X205679217Y-58987571D01*
X205822074Y-59059000D01*
X205179217Y-59916142D02*
X205322074Y-59987571D01*
X205679217Y-59987571D01*
X205822074Y-59916142D01*
X205893502Y-59773285D01*
X205893502Y-59630428D01*
X205822074Y-59487571D01*
X205679217Y-59416142D01*
X205322074Y-59416142D01*
X205179217Y-59344714D01*
X204250645Y-59987571D02*
X204393502Y-59916142D01*
X204464931Y-59773285D01*
X204464931Y-58487571D01*
X201893502Y-59916142D02*
X202036360Y-59987571D01*
X202322074Y-59987571D01*
X202464931Y-59916142D01*
X202536360Y-59844714D01*
X202607788Y-59701857D01*
X202607788Y-59273285D01*
X202536360Y-59130428D01*
X202464931Y-59059000D01*
X202322074Y-58987571D01*
X202036360Y-58987571D01*
X201893502Y-59059000D01*
X201036360Y-59987571D02*
X201179217Y-59916142D01*
X201250645Y-59844714D01*
X201322074Y-59701857D01*
X201322074Y-59273285D01*
X201250645Y-59130428D01*
X201179217Y-59059000D01*
X201036360Y-58987571D01*
X200822074Y-58987571D01*
X200679217Y-59059000D01*
X200607788Y-59130428D01*
X200536360Y-59273285D01*
X200536360Y-59701857D01*
X200607788Y-59844714D01*
X200679217Y-59916142D01*
X200822074Y-59987571D01*
X201036360Y-59987571D01*
X199893502Y-59987571D02*
X199893502Y-58987571D01*
X199893502Y-59130428D02*
X199822074Y-59059000D01*
X199679217Y-58987571D01*
X199464931Y-58987571D01*
X199322074Y-59059000D01*
X199250645Y-59201857D01*
X199250645Y-59987571D01*
X199250645Y-59201857D02*
X199179217Y-59059000D01*
X199036360Y-58987571D01*
X198822074Y-58987571D01*
X198679217Y-59059000D01*
X198607788Y-59201857D01*
X198607788Y-59987571D01*
X197250645Y-58987571D02*
X197250645Y-59987571D01*
X197893502Y-58987571D02*
X197893502Y-59773285D01*
X197822074Y-59916142D01*
X197679217Y-59987571D01*
X197464931Y-59987571D01*
X197322074Y-59916142D01*
X197250645Y-59844714D01*
X196536360Y-58987571D02*
X196536360Y-59987571D01*
X196536360Y-59130428D02*
X196464931Y-59059000D01*
X196322074Y-58987571D01*
X196107788Y-58987571D01*
X195964931Y-59059000D01*
X195893502Y-59201857D01*
X195893502Y-59987571D01*
X195179217Y-59987571D02*
X195179217Y-58987571D01*
X195179217Y-58487571D02*
X195250645Y-58559000D01*
X195179217Y-58630428D01*
X195107788Y-58559000D01*
X195179217Y-58487571D01*
X195179217Y-58630428D01*
X193822074Y-59916142D02*
X193964931Y-59987571D01*
X194250645Y-59987571D01*
X194393502Y-59916142D01*
X194464931Y-59844714D01*
X194536360Y-59701857D01*
X194536360Y-59273285D01*
X194464931Y-59130428D01*
X194393502Y-59059000D01*
X194250645Y-58987571D01*
X193964931Y-58987571D01*
X193822074Y-59059000D01*
X192536360Y-59987571D02*
X192536360Y-59201857D01*
X192607788Y-59059000D01*
X192750645Y-58987571D01*
X193036360Y-58987571D01*
X193179217Y-59059000D01*
X192536360Y-59916142D02*
X192679217Y-59987571D01*
X193036360Y-59987571D01*
X193179217Y-59916142D01*
X193250645Y-59773285D01*
X193250645Y-59630428D01*
X193179217Y-59487571D01*
X193036360Y-59416142D01*
X192679217Y-59416142D01*
X192536360Y-59344714D01*
X192036360Y-58987571D02*
X191464931Y-58987571D01*
X191822074Y-58487571D02*
X191822074Y-59773285D01*
X191750645Y-59916142D01*
X191607788Y-59987571D01*
X191464931Y-59987571D01*
X190964931Y-59987571D02*
X190964931Y-58987571D01*
X190964931Y-58487571D02*
X191036360Y-58559000D01*
X190964931Y-58630428D01*
X190893502Y-58559000D01*
X190964931Y-58487571D01*
X190964931Y-58630428D01*
X190036360Y-59987571D02*
X190179217Y-59916142D01*
X190250645Y-59844714D01*
X190322074Y-59701857D01*
X190322074Y-59273285D01*
X190250645Y-59130428D01*
X190179217Y-59059000D01*
X190036360Y-58987571D01*
X189822074Y-58987571D01*
X189679217Y-59059000D01*
X189607788Y-59130428D01*
X189536360Y-59273285D01*
X189536360Y-59701857D01*
X189607788Y-59844714D01*
X189679217Y-59916142D01*
X189822074Y-59987571D01*
X190036360Y-59987571D01*
X188893502Y-58987571D02*
X188893502Y-59987571D01*
X188893502Y-59130428D02*
X188822074Y-59059000D01*
X188679217Y-58987571D01*
X188464931Y-58987571D01*
X188322074Y-59059000D01*
X188250645Y-59201857D01*
X188250645Y-59987571D01*
X222437842Y-61715911D02*
X222437842Y-62787340D01*
X222509271Y-63001625D01*
X222652128Y-63144482D01*
X222866414Y-63215911D01*
X223009271Y-63215911D01*
X221866414Y-61715911D02*
X220937842Y-61715911D01*
X221437842Y-62287340D01*
X221223557Y-62287340D01*
X221080700Y-62358768D01*
X221009271Y-62430197D01*
X220937842Y-62573054D01*
X220937842Y-62930197D01*
X221009271Y-63073054D01*
X221080700Y-63144482D01*
X221223557Y-63215911D01*
X221652128Y-63215911D01*
X221794985Y-63144482D01*
X221866414Y-63073054D01*
X220223557Y-63144482D02*
X220223557Y-63215911D01*
X220294985Y-63358768D01*
X220366414Y-63430197D01*
X218009271Y-61715911D02*
X218009271Y-62787340D01*
X218080700Y-63001625D01*
X218223557Y-63144482D01*
X218437842Y-63215911D01*
X218580700Y-63215911D01*
X216652128Y-62215911D02*
X216652128Y-63215911D01*
X217009271Y-61644482D02*
X217366414Y-62715911D01*
X216437842Y-62715911D01*
X215794985Y-63144482D02*
X215794985Y-63215911D01*
X215866414Y-63358768D01*
X215937842Y-63430197D01*
X213580700Y-61715911D02*
X213580700Y-62787340D01*
X213652128Y-63001625D01*
X213794985Y-63144482D01*
X214009271Y-63215911D01*
X214152128Y-63215911D01*
X212152128Y-61715911D02*
X212866414Y-61715911D01*
X212937842Y-62430197D01*
X212866414Y-62358768D01*
X212723557Y-62287340D01*
X212366414Y-62287340D01*
X212223557Y-62358768D01*
X212152128Y-62430197D01*
X212080700Y-62573054D01*
X212080700Y-62930197D01*
X212152128Y-63073054D01*
X212223557Y-63144482D01*
X212366414Y-63215911D01*
X212723557Y-63215911D01*
X212866414Y-63144482D01*
X212937842Y-63073054D01*
X210366414Y-62787340D02*
X209652128Y-62787340D01*
X210509271Y-63215911D02*
X210009271Y-61715911D01*
X209509271Y-63215911D01*
X208366414Y-63215911D02*
X208366414Y-61715911D01*
X208366414Y-63144482D02*
X208509271Y-63215911D01*
X208794985Y-63215911D01*
X208937842Y-63144482D01*
X209009271Y-63073054D01*
X209080700Y-62930197D01*
X209080700Y-62501625D01*
X209009271Y-62358768D01*
X208937842Y-62287340D01*
X208794985Y-62215911D01*
X208509271Y-62215911D01*
X208366414Y-62287340D01*
X207009271Y-63215911D02*
X207009271Y-61715911D01*
X207009271Y-63144482D02*
X207152128Y-63215911D01*
X207437842Y-63215911D01*
X207580700Y-63144482D01*
X207652128Y-63073054D01*
X207723557Y-62930197D01*
X207723557Y-62501625D01*
X207652128Y-62358768D01*
X207580700Y-62287340D01*
X207437842Y-62215911D01*
X207152128Y-62215911D01*
X207009271Y-62287340D01*
X206294985Y-63215911D02*
X206294985Y-62215911D01*
X206294985Y-62501625D02*
X206223557Y-62358768D01*
X206152128Y-62287340D01*
X206009271Y-62215911D01*
X205866414Y-62215911D01*
X204794985Y-63144482D02*
X204937842Y-63215911D01*
X205223557Y-63215911D01*
X205366414Y-63144482D01*
X205437842Y-63001625D01*
X205437842Y-62430197D01*
X205366414Y-62287340D01*
X205223557Y-62215911D01*
X204937842Y-62215911D01*
X204794985Y-62287340D01*
X204723557Y-62430197D01*
X204723557Y-62573054D01*
X205437842Y-62715911D01*
X204152128Y-63144482D02*
X204009271Y-63215911D01*
X203723557Y-63215911D01*
X203580700Y-63144482D01*
X203509271Y-63001625D01*
X203509271Y-62930197D01*
X203580700Y-62787340D01*
X203723557Y-62715911D01*
X203937842Y-62715911D01*
X204080700Y-62644482D01*
X204152128Y-62501625D01*
X204152128Y-62430197D01*
X204080700Y-62287340D01*
X203937842Y-62215911D01*
X203723557Y-62215911D01*
X203580700Y-62287340D01*
X202937842Y-63144482D02*
X202794985Y-63215911D01*
X202509271Y-63215911D01*
X202366414Y-63144482D01*
X202294985Y-63001625D01*
X202294985Y-62930197D01*
X202366414Y-62787340D01*
X202509271Y-62715911D01*
X202723557Y-62715911D01*
X202866414Y-62644482D01*
X202937842Y-62501625D01*
X202937842Y-62430197D01*
X202866414Y-62287340D01*
X202723557Y-62215911D01*
X202509271Y-62215911D01*
X202366414Y-62287340D01*
X200509271Y-62215911D02*
X200509271Y-63715911D01*
X200509271Y-62287340D02*
X200366414Y-62215911D01*
X200080700Y-62215911D01*
X199937842Y-62287340D01*
X199866414Y-62358768D01*
X199794985Y-62501625D01*
X199794985Y-62930197D01*
X199866414Y-63073054D01*
X199937842Y-63144482D01*
X200080700Y-63215911D01*
X200366414Y-63215911D01*
X200509271Y-63144482D01*
X199152128Y-63215911D02*
X199152128Y-62215911D01*
X199152128Y-61715911D02*
X199223557Y-61787340D01*
X199152128Y-61858768D01*
X199080700Y-61787340D01*
X199152128Y-61715911D01*
X199152128Y-61858768D01*
X198437842Y-62215911D02*
X198437842Y-63215911D01*
X198437842Y-62358768D02*
X198366414Y-62287340D01*
X198223557Y-62215911D01*
X198009271Y-62215911D01*
X197866414Y-62287340D01*
X197794985Y-62430197D01*
X197794985Y-63215911D01*
X196152128Y-62215911D02*
X195580700Y-62215911D01*
X195937842Y-63215911D02*
X195937842Y-61930197D01*
X195866414Y-61787340D01*
X195723557Y-61715911D01*
X195580700Y-61715911D01*
X194866414Y-63215911D02*
X195009271Y-63144482D01*
X195080700Y-63073054D01*
X195152128Y-62930197D01*
X195152128Y-62501625D01*
X195080700Y-62358768D01*
X195009271Y-62287340D01*
X194866414Y-62215911D01*
X194652128Y-62215911D01*
X194509271Y-62287340D01*
X194437842Y-62358768D01*
X194366414Y-62501625D01*
X194366414Y-62930197D01*
X194437842Y-63073054D01*
X194509271Y-63144482D01*
X194652128Y-63215911D01*
X194866414Y-63215911D01*
X193723557Y-63215911D02*
X193723557Y-62215911D01*
X193723557Y-62501625D02*
X193652128Y-62358768D01*
X193580700Y-62287340D01*
X193437842Y-62215911D01*
X193294985Y-62215911D01*
X191723557Y-63144482D02*
X191580700Y-63215911D01*
X191294985Y-63215911D01*
X191152128Y-63144482D01*
X191080700Y-63001625D01*
X191080700Y-62930197D01*
X191152128Y-62787340D01*
X191294985Y-62715911D01*
X191509271Y-62715911D01*
X191652128Y-62644482D01*
X191723557Y-62501625D01*
X191723557Y-62430197D01*
X191652128Y-62287340D01*
X191509271Y-62215911D01*
X191294985Y-62215911D01*
X191152128Y-62287340D01*
X189866414Y-63144482D02*
X190009271Y-63215911D01*
X190294985Y-63215911D01*
X190437842Y-63144482D01*
X190509271Y-63001625D01*
X190509271Y-62430197D01*
X190437842Y-62287340D01*
X190294985Y-62215911D01*
X190009271Y-62215911D01*
X189866414Y-62287340D01*
X189794985Y-62430197D01*
X189794985Y-62573054D01*
X190509271Y-62715911D01*
X189152128Y-63215911D02*
X189152128Y-62215911D01*
X189152128Y-62501625D02*
X189080700Y-62358768D01*
X189009271Y-62287340D01*
X188866414Y-62215911D01*
X188723557Y-62215911D01*
X188223557Y-63215911D02*
X188223557Y-62215911D01*
X188223557Y-61715911D02*
X188294985Y-61787340D01*
X188223557Y-61858768D01*
X188152128Y-61787340D01*
X188223557Y-61715911D01*
X188223557Y-61858768D01*
X186866414Y-63215911D02*
X186866414Y-62430197D01*
X186937842Y-62287340D01*
X187080700Y-62215911D01*
X187366414Y-62215911D01*
X187509271Y-62287340D01*
X186866414Y-63144482D02*
X187009271Y-63215911D01*
X187366414Y-63215911D01*
X187509271Y-63144482D01*
X187580700Y-63001625D01*
X187580700Y-62858768D01*
X187509271Y-62715911D01*
X187366414Y-62644482D01*
X187009271Y-62644482D01*
X186866414Y-62573054D01*
X185937842Y-63215911D02*
X186080700Y-63144482D01*
X186152128Y-63001625D01*
X186152128Y-61715911D01*
X183580700Y-63144482D02*
X183723557Y-63215911D01*
X184009271Y-63215911D01*
X184152128Y-63144482D01*
X184223557Y-63073054D01*
X184294985Y-62930197D01*
X184294985Y-62501625D01*
X184223557Y-62358768D01*
X184152128Y-62287340D01*
X184009271Y-62215911D01*
X183723557Y-62215911D01*
X183580700Y-62287340D01*
X182723557Y-63215911D02*
X182866414Y-63144482D01*
X182937842Y-63073054D01*
X183009271Y-62930197D01*
X183009271Y-62501625D01*
X182937842Y-62358768D01*
X182866414Y-62287340D01*
X182723557Y-62215911D01*
X182509271Y-62215911D01*
X182366414Y-62287340D01*
X182294985Y-62358768D01*
X182223557Y-62501625D01*
X182223557Y-62930197D01*
X182294985Y-63073054D01*
X182366414Y-63144482D01*
X182509271Y-63215911D01*
X182723557Y-63215911D01*
X181580700Y-63215911D02*
X181580700Y-62215911D01*
X181580700Y-62358768D02*
X181509271Y-62287340D01*
X181366414Y-62215911D01*
X181152128Y-62215911D01*
X181009271Y-62287340D01*
X180937842Y-62430197D01*
X180937842Y-63215911D01*
X180937842Y-62430197D02*
X180866414Y-62287340D01*
X180723557Y-62215911D01*
X180509271Y-62215911D01*
X180366414Y-62287340D01*
X180294985Y-62430197D01*
X180294985Y-63215911D01*
X179580700Y-63215911D02*
X179580700Y-62215911D01*
X179580700Y-62358768D02*
X179509271Y-62287340D01*
X179366414Y-62215911D01*
X179152128Y-62215911D01*
X179009271Y-62287340D01*
X178937842Y-62430197D01*
X178937842Y-63215911D01*
X178937842Y-62430197D02*
X178866414Y-62287340D01*
X178723557Y-62215911D01*
X178509271Y-62215911D01*
X178366414Y-62287340D01*
X178294985Y-62430197D01*
X178294985Y-63215911D01*
X176937842Y-62215911D02*
X176937842Y-63215911D01*
X177580700Y-62215911D02*
X177580700Y-63001625D01*
X177509271Y-63144482D01*
X177366414Y-63215911D01*
X177152128Y-63215911D01*
X177009271Y-63144482D01*
X176937842Y-63073054D01*
X176223557Y-62215911D02*
X176223557Y-63215911D01*
X176223557Y-62358768D02*
X176152128Y-62287340D01*
X176009271Y-62215911D01*
X175794985Y-62215911D01*
X175652128Y-62287340D01*
X175580700Y-62430197D01*
X175580700Y-63215911D01*
X174866414Y-63215911D02*
X174866414Y-62215911D01*
X174866414Y-61715911D02*
X174937842Y-61787340D01*
X174866414Y-61858768D01*
X174794985Y-61787340D01*
X174866414Y-61715911D01*
X174866414Y-61858768D01*
X173509271Y-63144482D02*
X173652128Y-63215911D01*
X173937842Y-63215911D01*
X174080700Y-63144482D01*
X174152128Y-63073054D01*
X174223557Y-62930197D01*
X174223557Y-62501625D01*
X174152128Y-62358768D01*
X174080700Y-62287340D01*
X173937842Y-62215911D01*
X173652128Y-62215911D01*
X173509271Y-62287340D01*
X172223557Y-63215911D02*
X172223557Y-62430197D01*
X172294985Y-62287340D01*
X172437842Y-62215911D01*
X172723557Y-62215911D01*
X172866414Y-62287340D01*
X172223557Y-63144482D02*
X172366414Y-63215911D01*
X172723557Y-63215911D01*
X172866414Y-63144482D01*
X172937842Y-63001625D01*
X172937842Y-62858768D01*
X172866414Y-62715911D01*
X172723557Y-62644482D01*
X172366414Y-62644482D01*
X172223557Y-62573054D01*
X171723557Y-62215911D02*
X171152128Y-62215911D01*
X171509271Y-61715911D02*
X171509271Y-63001625D01*
X171437842Y-63144482D01*
X171294985Y-63215911D01*
X171152128Y-63215911D01*
X170652128Y-63215911D02*
X170652128Y-62215911D01*
X170652128Y-61715911D02*
X170723557Y-61787340D01*
X170652128Y-61858768D01*
X170580700Y-61787340D01*
X170652128Y-61715911D01*
X170652128Y-61858768D01*
X169723557Y-63215911D02*
X169866414Y-63144482D01*
X169937842Y-63073054D01*
X170009271Y-62930197D01*
X170009271Y-62501625D01*
X169937842Y-62358768D01*
X169866414Y-62287340D01*
X169723557Y-62215911D01*
X169509271Y-62215911D01*
X169366414Y-62287340D01*
X169294985Y-62358768D01*
X169223557Y-62501625D01*
X169223557Y-62930197D01*
X169294985Y-63073054D01*
X169366414Y-63144482D01*
X169509271Y-63215911D01*
X169723557Y-63215911D01*
X168580700Y-62215911D02*
X168580700Y-63215911D01*
X168580700Y-62358768D02*
X168509271Y-62287340D01*
X168366414Y-62215911D01*
X168152128Y-62215911D01*
X168009271Y-62287340D01*
X167937842Y-62430197D01*
X167937842Y-63215911D01*
X213697200Y-68523111D02*
X213697200Y-69594540D01*
X213768628Y-69808825D01*
X213911485Y-69951682D01*
X214125771Y-70023111D01*
X214268628Y-70023111D01*
X212768628Y-69165968D02*
X212911485Y-69094540D01*
X212982914Y-69023111D01*
X213054342Y-68880254D01*
X213054342Y-68808825D01*
X212982914Y-68665968D01*
X212911485Y-68594540D01*
X212768628Y-68523111D01*
X212482914Y-68523111D01*
X212340057Y-68594540D01*
X212268628Y-68665968D01*
X212197200Y-68808825D01*
X212197200Y-68880254D01*
X212268628Y-69023111D01*
X212340057Y-69094540D01*
X212482914Y-69165968D01*
X212768628Y-69165968D01*
X212911485Y-69237397D01*
X212982914Y-69308825D01*
X213054342Y-69451682D01*
X213054342Y-69737397D01*
X212982914Y-69880254D01*
X212911485Y-69951682D01*
X212768628Y-70023111D01*
X212482914Y-70023111D01*
X212340057Y-69951682D01*
X212268628Y-69880254D01*
X212197200Y-69737397D01*
X212197200Y-69451682D01*
X212268628Y-69308825D01*
X212340057Y-69237397D01*
X212482914Y-69165968D01*
X210411485Y-69237397D02*
X209911485Y-69237397D01*
X209697200Y-70023111D02*
X210411485Y-70023111D01*
X210411485Y-68523111D01*
X209697200Y-68523111D01*
X209054342Y-69023111D02*
X209054342Y-70023111D01*
X209054342Y-69165968D02*
X208982914Y-69094540D01*
X208840057Y-69023111D01*
X208625771Y-69023111D01*
X208482914Y-69094540D01*
X208411485Y-69237397D01*
X208411485Y-70023111D01*
X207054342Y-70023111D02*
X207054342Y-69237397D01*
X207125771Y-69094540D01*
X207268628Y-69023111D01*
X207554342Y-69023111D01*
X207697200Y-69094540D01*
X207054342Y-69951682D02*
X207197200Y-70023111D01*
X207554342Y-70023111D01*
X207697200Y-69951682D01*
X207768628Y-69808825D01*
X207768628Y-69665968D01*
X207697200Y-69523111D01*
X207554342Y-69451682D01*
X207197200Y-69451682D01*
X207054342Y-69380254D01*
X206340057Y-70023111D02*
X206340057Y-68523111D01*
X206340057Y-69094540D02*
X206197200Y-69023111D01*
X205911485Y-69023111D01*
X205768628Y-69094540D01*
X205697200Y-69165968D01*
X205625771Y-69308825D01*
X205625771Y-69737397D01*
X205697200Y-69880254D01*
X205768628Y-69951682D01*
X205911485Y-70023111D01*
X206197200Y-70023111D01*
X206340057Y-69951682D01*
X204768628Y-70023111D02*
X204911485Y-69951682D01*
X204982914Y-69808825D01*
X204982914Y-68523111D01*
X203625771Y-69951682D02*
X203768628Y-70023111D01*
X204054342Y-70023111D01*
X204197200Y-69951682D01*
X204268628Y-69808825D01*
X204268628Y-69237397D01*
X204197200Y-69094540D01*
X204054342Y-69023111D01*
X203768628Y-69023111D01*
X203625771Y-69094540D01*
X203554342Y-69237397D01*
X203554342Y-69380254D01*
X204268628Y-69523111D01*
X201768628Y-70023111D02*
X201768628Y-68523111D01*
X201197200Y-68523111D01*
X201054342Y-68594540D01*
X200982914Y-68665968D01*
X200911485Y-68808825D01*
X200911485Y-69023111D01*
X200982914Y-69165968D01*
X201054342Y-69237397D01*
X201197200Y-69308825D01*
X201768628Y-69308825D01*
X200340057Y-69594540D02*
X199625771Y-69594540D01*
X200482914Y-70023111D02*
X199982914Y-68523111D01*
X199482914Y-70023111D01*
X198197200Y-70023111D02*
X199054342Y-70023111D01*
X198625771Y-70023111D02*
X198625771Y-68523111D01*
X198768628Y-68737397D01*
X198911485Y-68880254D01*
X199054342Y-68951682D01*
X213623540Y-64987431D02*
X213623540Y-66058860D01*
X213694968Y-66273145D01*
X213837825Y-66416002D01*
X214052111Y-66487431D01*
X214194968Y-66487431D01*
X212837825Y-66487431D02*
X212552111Y-66487431D01*
X212409254Y-66416002D01*
X212337825Y-66344574D01*
X212194968Y-66130288D01*
X212123540Y-65844574D01*
X212123540Y-65273145D01*
X212194968Y-65130288D01*
X212266397Y-65058860D01*
X212409254Y-64987431D01*
X212694968Y-64987431D01*
X212837825Y-65058860D01*
X212909254Y-65130288D01*
X212980682Y-65273145D01*
X212980682Y-65630288D01*
X212909254Y-65773145D01*
X212837825Y-65844574D01*
X212694968Y-65916002D01*
X212409254Y-65916002D01*
X212266397Y-65844574D01*
X212194968Y-65773145D01*
X212123540Y-65630288D01*
X210337825Y-65701717D02*
X209837825Y-65701717D01*
X209623540Y-66487431D02*
X210337825Y-66487431D01*
X210337825Y-64987431D01*
X209623540Y-64987431D01*
X208980682Y-65487431D02*
X208980682Y-66487431D01*
X208980682Y-65630288D02*
X208909254Y-65558860D01*
X208766397Y-65487431D01*
X208552111Y-65487431D01*
X208409254Y-65558860D01*
X208337825Y-65701717D01*
X208337825Y-66487431D01*
X206980682Y-66487431D02*
X206980682Y-65701717D01*
X207052111Y-65558860D01*
X207194968Y-65487431D01*
X207480682Y-65487431D01*
X207623540Y-65558860D01*
X206980682Y-66416002D02*
X207123540Y-66487431D01*
X207480682Y-66487431D01*
X207623540Y-66416002D01*
X207694968Y-66273145D01*
X207694968Y-66130288D01*
X207623540Y-65987431D01*
X207480682Y-65916002D01*
X207123540Y-65916002D01*
X206980682Y-65844574D01*
X206266397Y-66487431D02*
X206266397Y-64987431D01*
X206266397Y-65558860D02*
X206123540Y-65487431D01*
X205837825Y-65487431D01*
X205694968Y-65558860D01*
X205623540Y-65630288D01*
X205552111Y-65773145D01*
X205552111Y-66201717D01*
X205623540Y-66344574D01*
X205694968Y-66416002D01*
X205837825Y-66487431D01*
X206123540Y-66487431D01*
X206266397Y-66416002D01*
X204694968Y-66487431D02*
X204837825Y-66416002D01*
X204909254Y-66273145D01*
X204909254Y-64987431D01*
X203552111Y-66416002D02*
X203694968Y-66487431D01*
X203980682Y-66487431D01*
X204123540Y-66416002D01*
X204194968Y-66273145D01*
X204194968Y-65701717D01*
X204123540Y-65558860D01*
X203980682Y-65487431D01*
X203694968Y-65487431D01*
X203552111Y-65558860D01*
X203480682Y-65701717D01*
X203480682Y-65844574D01*
X204194968Y-65987431D01*
X201694968Y-66487431D02*
X201694968Y-64987431D01*
X201123540Y-64987431D01*
X200980682Y-65058860D01*
X200909254Y-65130288D01*
X200837825Y-65273145D01*
X200837825Y-65487431D01*
X200909254Y-65630288D01*
X200980682Y-65701717D01*
X201123540Y-65773145D01*
X201694968Y-65773145D01*
X200266397Y-66058860D02*
X199552111Y-66058860D01*
X200409254Y-66487431D02*
X199909254Y-64987431D01*
X199409254Y-66487431D01*
X198980682Y-65130288D02*
X198909254Y-65058860D01*
X198766397Y-64987431D01*
X198409254Y-64987431D01*
X198266397Y-65058860D01*
X198194968Y-65130288D01*
X198123540Y-65273145D01*
X198123540Y-65416002D01*
X198194968Y-65630288D01*
X199052111Y-66487431D01*
X198123540Y-66487431D01*
D12*
X170203384Y-41371211D02*
X170346241Y-41418830D01*
X170393860Y-41466449D01*
X170441480Y-41561687D01*
X170441480Y-41704544D01*
X170393860Y-41799782D01*
X170346241Y-41847401D01*
X170251003Y-41895020D01*
X169870051Y-41895020D01*
X169870051Y-40895020D01*
X170203384Y-40895020D01*
X170298622Y-40942640D01*
X170346241Y-40990259D01*
X170393860Y-41085497D01*
X170393860Y-41180735D01*
X170346241Y-41275973D01*
X170298622Y-41323592D01*
X170203384Y-41371211D01*
X169870051Y-41371211D01*
X171012908Y-41895020D02*
X170917670Y-41847401D01*
X170870051Y-41799782D01*
X170822432Y-41704544D01*
X170822432Y-41418830D01*
X170870051Y-41323592D01*
X170917670Y-41275973D01*
X171012908Y-41228354D01*
X171155765Y-41228354D01*
X171251003Y-41275973D01*
X171298622Y-41323592D01*
X171346241Y-41418830D01*
X171346241Y-41704544D01*
X171298622Y-41799782D01*
X171251003Y-41847401D01*
X171155765Y-41895020D01*
X171012908Y-41895020D01*
X171631956Y-41228354D02*
X172012908Y-41228354D01*
X171774813Y-40895020D02*
X171774813Y-41752163D01*
X171822432Y-41847401D01*
X171917670Y-41895020D01*
X172012908Y-41895020D01*
X172203384Y-41228354D02*
X172584337Y-41228354D01*
X172346241Y-40895020D02*
X172346241Y-41752163D01*
X172393860Y-41847401D01*
X172489099Y-41895020D01*
X172584337Y-41895020D01*
X173060527Y-41895020D02*
X172965289Y-41847401D01*
X172917670Y-41799782D01*
X172870051Y-41704544D01*
X172870051Y-41418830D01*
X172917670Y-41323592D01*
X172965289Y-41275973D01*
X173060527Y-41228354D01*
X173203384Y-41228354D01*
X173298622Y-41275973D01*
X173346241Y-41323592D01*
X173393860Y-41418830D01*
X173393860Y-41704544D01*
X173346241Y-41799782D01*
X173298622Y-41847401D01*
X173203384Y-41895020D01*
X173060527Y-41895020D01*
X173822432Y-41895020D02*
X173822432Y-41228354D01*
X173822432Y-41323592D02*
X173870051Y-41275973D01*
X173965289Y-41228354D01*
X174108146Y-41228354D01*
X174203384Y-41275973D01*
X174251003Y-41371211D01*
X174251003Y-41895020D01*
X174251003Y-41371211D02*
X174298622Y-41275973D01*
X174393860Y-41228354D01*
X174536718Y-41228354D01*
X174631956Y-41275973D01*
X174679575Y-41371211D01*
X174679575Y-41895020D01*
X175870051Y-41847401D02*
X176012908Y-41895020D01*
X176251003Y-41895020D01*
X176346241Y-41847401D01*
X176393860Y-41799782D01*
X176441480Y-41704544D01*
X176441480Y-41609306D01*
X176393860Y-41514068D01*
X176346241Y-41466449D01*
X176251003Y-41418830D01*
X176060527Y-41371211D01*
X175965289Y-41323592D01*
X175917670Y-41275973D01*
X175870051Y-41180735D01*
X175870051Y-41085497D01*
X175917670Y-40990259D01*
X175965289Y-40942640D01*
X176060527Y-40895020D01*
X176298622Y-40895020D01*
X176441480Y-40942640D01*
X176870051Y-41895020D02*
X176870051Y-41228354D01*
X176870051Y-40895020D02*
X176822432Y-40942640D01*
X176870051Y-40990259D01*
X176917670Y-40942640D01*
X176870051Y-40895020D01*
X176870051Y-40990259D01*
X177489099Y-41895020D02*
X177393860Y-41847401D01*
X177346241Y-41752163D01*
X177346241Y-40895020D01*
X177870051Y-41895020D02*
X177870051Y-40895020D01*
X177965289Y-41514068D02*
X178251003Y-41895020D01*
X178251003Y-41228354D02*
X177870051Y-41609306D01*
X179393860Y-41847401D02*
X179536718Y-41895020D01*
X179774813Y-41895020D01*
X179870051Y-41847401D01*
X179917670Y-41799782D01*
X179965289Y-41704544D01*
X179965289Y-41609306D01*
X179917670Y-41514068D01*
X179870051Y-41466449D01*
X179774813Y-41418830D01*
X179584337Y-41371211D01*
X179489099Y-41323592D01*
X179441480Y-41275973D01*
X179393860Y-41180735D01*
X179393860Y-41085497D01*
X179441480Y-40990259D01*
X179489099Y-40942640D01*
X179584337Y-40895020D01*
X179822432Y-40895020D01*
X179965289Y-40942640D01*
X180822432Y-41847401D02*
X180727194Y-41895020D01*
X180536718Y-41895020D01*
X180441480Y-41847401D01*
X180393860Y-41799782D01*
X180346241Y-41704544D01*
X180346241Y-41418830D01*
X180393860Y-41323592D01*
X180441480Y-41275973D01*
X180536718Y-41228354D01*
X180727194Y-41228354D01*
X180822432Y-41275973D01*
X181251003Y-41895020D02*
X181251003Y-41228354D01*
X181251003Y-41418830D02*
X181298622Y-41323592D01*
X181346241Y-41275973D01*
X181441480Y-41228354D01*
X181536718Y-41228354D01*
X182251003Y-41847401D02*
X182155765Y-41895020D01*
X181965289Y-41895020D01*
X181870051Y-41847401D01*
X181822432Y-41752163D01*
X181822432Y-41371211D01*
X181870051Y-41275973D01*
X181965289Y-41228354D01*
X182155765Y-41228354D01*
X182251003Y-41275973D01*
X182298622Y-41371211D01*
X182298622Y-41466449D01*
X181822432Y-41561687D01*
X183108146Y-41847401D02*
X183012908Y-41895020D01*
X182822432Y-41895020D01*
X182727194Y-41847401D01*
X182679575Y-41752163D01*
X182679575Y-41371211D01*
X182727194Y-41275973D01*
X182822432Y-41228354D01*
X183012908Y-41228354D01*
X183108146Y-41275973D01*
X183155765Y-41371211D01*
X183155765Y-41466449D01*
X182679575Y-41561687D01*
X183584337Y-41228354D02*
X183584337Y-41895020D01*
X183584337Y-41323592D02*
X183631956Y-41275973D01*
X183727194Y-41228354D01*
X183870051Y-41228354D01*
X183965289Y-41275973D01*
X184012908Y-41371211D01*
X184012908Y-41895020D01*
D15*
X233400600Y-43286680D02*
X91183460Y-43286680D01*
X91183460Y-43286680D02*
X91183460Y-123548140D01*
X233400600Y-123548140D02*
X233400600Y-43286680D01*
X91183460Y-123548140D02*
X233400600Y-123548140D01*
%LPC*%
D12*
X215533505Y-41378831D02*
X215676362Y-41426450D01*
X215723981Y-41474069D01*
X215771600Y-41569307D01*
X215771600Y-41712164D01*
X215723981Y-41807402D01*
X215676362Y-41855021D01*
X215581124Y-41902640D01*
X215200172Y-41902640D01*
X215200172Y-40902640D01*
X215533505Y-40902640D01*
X215628743Y-40950260D01*
X215676362Y-40997879D01*
X215723981Y-41093117D01*
X215723981Y-41188355D01*
X215676362Y-41283593D01*
X215628743Y-41331212D01*
X215533505Y-41378831D01*
X215200172Y-41378831D01*
X216343029Y-41902640D02*
X216247791Y-41855021D01*
X216200172Y-41807402D01*
X216152553Y-41712164D01*
X216152553Y-41426450D01*
X216200172Y-41331212D01*
X216247791Y-41283593D01*
X216343029Y-41235974D01*
X216485886Y-41235974D01*
X216581124Y-41283593D01*
X216628743Y-41331212D01*
X216676362Y-41426450D01*
X216676362Y-41712164D01*
X216628743Y-41807402D01*
X216581124Y-41855021D01*
X216485886Y-41902640D01*
X216343029Y-41902640D01*
X216962077Y-41235974D02*
X217343029Y-41235974D01*
X217104934Y-40902640D02*
X217104934Y-41759783D01*
X217152553Y-41855021D01*
X217247791Y-41902640D01*
X217343029Y-41902640D01*
X217533505Y-41235974D02*
X217914458Y-41235974D01*
X217676362Y-40902640D02*
X217676362Y-41759783D01*
X217723981Y-41855021D01*
X217819220Y-41902640D01*
X217914458Y-41902640D01*
X218390648Y-41902640D02*
X218295410Y-41855021D01*
X218247791Y-41807402D01*
X218200172Y-41712164D01*
X218200172Y-41426450D01*
X218247791Y-41331212D01*
X218295410Y-41283593D01*
X218390648Y-41235974D01*
X218533505Y-41235974D01*
X218628743Y-41283593D01*
X218676362Y-41331212D01*
X218723981Y-41426450D01*
X218723981Y-41712164D01*
X218676362Y-41807402D01*
X218628743Y-41855021D01*
X218533505Y-41902640D01*
X218390648Y-41902640D01*
X219152553Y-41902640D02*
X219152553Y-41235974D01*
X219152553Y-41331212D02*
X219200172Y-41283593D01*
X219295410Y-41235974D01*
X219438267Y-41235974D01*
X219533505Y-41283593D01*
X219581124Y-41378831D01*
X219581124Y-41902640D01*
X219581124Y-41378831D02*
X219628743Y-41283593D01*
X219723981Y-41235974D01*
X219866839Y-41235974D01*
X219962077Y-41283593D01*
X220009696Y-41378831D01*
X220009696Y-41902640D01*
X221247791Y-41902640D02*
X221247791Y-40902640D01*
X221581124Y-41616926D01*
X221914458Y-40902640D01*
X221914458Y-41902640D01*
X222819220Y-41902640D02*
X222819220Y-41378831D01*
X222771600Y-41283593D01*
X222676362Y-41235974D01*
X222485886Y-41235974D01*
X222390648Y-41283593D01*
X222819220Y-41855021D02*
X222723981Y-41902640D01*
X222485886Y-41902640D01*
X222390648Y-41855021D01*
X222343029Y-41759783D01*
X222343029Y-41664545D01*
X222390648Y-41569307D01*
X222485886Y-41521688D01*
X222723981Y-41521688D01*
X222819220Y-41474069D01*
X223247791Y-41855021D02*
X223343029Y-41902640D01*
X223533505Y-41902640D01*
X223628743Y-41855021D01*
X223676362Y-41759783D01*
X223676362Y-41712164D01*
X223628743Y-41616926D01*
X223533505Y-41569307D01*
X223390648Y-41569307D01*
X223295410Y-41521688D01*
X223247791Y-41426450D01*
X223247791Y-41378831D01*
X223295410Y-41283593D01*
X223390648Y-41235974D01*
X223533505Y-41235974D01*
X223628743Y-41283593D01*
X224104934Y-41902640D02*
X224104934Y-40902640D01*
X224200172Y-41521688D02*
X224485886Y-41902640D01*
X224485886Y-41235974D02*
X224104934Y-41616926D01*
D16*
X93162800Y-67551300D03*
D17*
X97562800Y-67551300D03*
D18*
X193000000Y-110825280D03*
D19*
X195400000Y-110825280D03*
X194697056Y-112522336D03*
X193000000Y-113225280D03*
X191302944Y-112522336D03*
X190600000Y-110825280D03*
X191302944Y-109128224D03*
X193000000Y-108425280D03*
X194697056Y-109128224D03*
D18*
X193000000Y-68084700D03*
D19*
X195400000Y-68084700D03*
X194697056Y-69781756D03*
X193000000Y-70484700D03*
X191302944Y-69781756D03*
X190600000Y-68084700D03*
X191302944Y-66387644D03*
X193000000Y-65684700D03*
X194697056Y-66387644D03*
X98197056Y-46302944D03*
X96500000Y-45600000D03*
X94802944Y-46302944D03*
X94100000Y-48000000D03*
X94802944Y-49697056D03*
X96500000Y-50400000D03*
X98197056Y-49697056D03*
X98900000Y-48000000D03*
D18*
X96500000Y-48000000D03*
D19*
X98197056Y-116802944D03*
X96500000Y-116100000D03*
X94802944Y-116802944D03*
X94100000Y-118500000D03*
X94802944Y-120197056D03*
X96500000Y-120900000D03*
X98197056Y-120197056D03*
X98900000Y-118500000D03*
D18*
X96500000Y-118500000D03*
X228000000Y-118500000D03*
D19*
X230400000Y-118500000D03*
X229697056Y-120197056D03*
X228000000Y-120900000D03*
X226302944Y-120197056D03*
X225600000Y-118500000D03*
X226302944Y-116802944D03*
X228000000Y-116100000D03*
X229697056Y-116802944D03*
D18*
X228000000Y-48000000D03*
D19*
X230400000Y-48000000D03*
X229697056Y-49697056D03*
X228000000Y-50400000D03*
X226302944Y-49697056D03*
X225600000Y-48000000D03*
X226302944Y-46302944D03*
X228000000Y-45600000D03*
X229697056Y-46302944D03*
D20*
X183508680Y-82838940D03*
X183508680Y-82263940D03*
X183508680Y-81688940D03*
X183508680Y-81113940D03*
X183508680Y-80538940D03*
X182933680Y-82838940D03*
X182933680Y-82263940D03*
X182933680Y-81688940D03*
X182933680Y-81113940D03*
X182933680Y-80538940D03*
X182358680Y-82838940D03*
X182358680Y-82263940D03*
X182358680Y-81688940D03*
X182358680Y-81113940D03*
X182358680Y-80538940D03*
X181783680Y-82838940D03*
X181783680Y-82263940D03*
X181783680Y-81688940D03*
X181783680Y-81113940D03*
X181783680Y-80538940D03*
X181208680Y-82838940D03*
X181208680Y-82263940D03*
X181208680Y-81688940D03*
X181208680Y-81113940D03*
X181208680Y-80538940D03*
X183508680Y-100740201D03*
X183508680Y-100165201D03*
X183508680Y-99590201D03*
X183508680Y-99015201D03*
X183508680Y-98440201D03*
X182933680Y-100740201D03*
X182933680Y-100165201D03*
X182933680Y-99590201D03*
X182933680Y-99015201D03*
X182933680Y-98440201D03*
X182358680Y-100740201D03*
X182358680Y-100165201D03*
X182358680Y-99590201D03*
X182358680Y-99015201D03*
X182358680Y-98440201D03*
X181783680Y-100740201D03*
X181783680Y-100165201D03*
X181783680Y-99590201D03*
X181783680Y-99015201D03*
X181783680Y-98440201D03*
X181208680Y-100740201D03*
X181208680Y-100165201D03*
X181208680Y-99590201D03*
X181208680Y-99015201D03*
X181208680Y-98440201D03*
D21*
X137732320Y-89985400D03*
X137732320Y-89560400D03*
X137732320Y-89135400D03*
X137732320Y-88710400D03*
X137307320Y-89985400D03*
X137307320Y-89560400D03*
X137307320Y-89135400D03*
X137307320Y-88710400D03*
X136882320Y-89985400D03*
X136882320Y-89560400D03*
X136882320Y-89135400D03*
X136882320Y-88710400D03*
X136457320Y-89985400D03*
X136457320Y-89560400D03*
X136457320Y-89135400D03*
X136457320Y-88710400D03*
D22*
X230474520Y-95014571D03*
X230474520Y-88664571D03*
X94073980Y-93538040D03*
X94073980Y-87188040D03*
M02*
