G04 #@! TF.GenerationSoftware,KiCad,Pcbnew,(5.1.6)-1*
G04 #@! TF.CreationDate,2020-09-08T15:56:58+05:30*
G04 #@! TF.ProjectId,rj-2-4ghz-filter-amp,726a2d32-2d34-4676-987a-2d66696c7465,rev?*
G04 #@! TF.SameCoordinates,Original*
G04 #@! TF.FileFunction,Paste,Top*
G04 #@! TF.FilePolarity,Positive*
%FSLAX46Y46*%
G04 Gerber Fmt 4.6, Leading zero omitted, Abs format (unit mm)*
G04 Created by KiCad (PCBNEW (5.1.6)-1) date 2020-09-08 15:56:58*
%MOMM*%
%LPD*%
G01*
G04 APERTURE LIST*
%ADD10C,0.150000*%
G04 #@! TA.AperFunction,Profile*
%ADD11C,0.050000*%
G04 #@! TD*
%ADD12R,2.560000X3.450000*%
%ADD13R,1.525000X0.700000*%
%ADD14R,1.000000X2.510000*%
%ADD15R,2.510000X1.000000*%
%ADD16R,2.000000X3.000000*%
%ADD17R,1.500000X2.200000*%
%ADD18R,3.500000X1.800000*%
%ADD19C,0.100000*%
%ADD20O,0.500000X0.900000*%
%ADD21O,0.900000X0.500000*%
%ADD22O,0.300000X0.700000*%
%ADD23O,0.700000X0.300000*%
%ADD24R,0.800000X0.900000*%
%ADD25R,5.000000X1.778000*%
%ADD26R,0.230000X0.300000*%
G04 APERTURE END LIST*
D10*
X186301856Y-41396611D02*
X185968522Y-41396611D01*
X185968522Y-41920420D02*
X185968522Y-40920420D01*
X186444713Y-40920420D01*
X186825665Y-41920420D02*
X186825665Y-41253754D01*
X186825665Y-41444230D02*
X186873284Y-41348992D01*
X186920903Y-41301373D01*
X187016141Y-41253754D01*
X187111380Y-41253754D01*
X187587570Y-41920420D02*
X187492332Y-41872801D01*
X187444713Y-41825182D01*
X187397094Y-41729944D01*
X187397094Y-41444230D01*
X187444713Y-41348992D01*
X187492332Y-41301373D01*
X187587570Y-41253754D01*
X187730427Y-41253754D01*
X187825665Y-41301373D01*
X187873284Y-41348992D01*
X187920903Y-41444230D01*
X187920903Y-41729944D01*
X187873284Y-41825182D01*
X187825665Y-41872801D01*
X187730427Y-41920420D01*
X187587570Y-41920420D01*
X188349475Y-41253754D02*
X188349475Y-41920420D01*
X188349475Y-41348992D02*
X188397094Y-41301373D01*
X188492332Y-41253754D01*
X188635189Y-41253754D01*
X188730427Y-41301373D01*
X188778046Y-41396611D01*
X188778046Y-41920420D01*
X189111380Y-41253754D02*
X189492332Y-41253754D01*
X189254237Y-40920420D02*
X189254237Y-41777563D01*
X189301856Y-41872801D01*
X189397094Y-41920420D01*
X189492332Y-41920420D01*
X190587570Y-41920420D02*
X190587570Y-40920420D01*
X190968522Y-40920420D01*
X191063760Y-40968040D01*
X191111380Y-41015659D01*
X191158999Y-41110897D01*
X191158999Y-41253754D01*
X191111380Y-41348992D01*
X191063760Y-41396611D01*
X190968522Y-41444230D01*
X190587570Y-41444230D01*
X192016141Y-41920420D02*
X192016141Y-41396611D01*
X191968522Y-41301373D01*
X191873284Y-41253754D01*
X191682808Y-41253754D01*
X191587570Y-41301373D01*
X192016141Y-41872801D02*
X191920903Y-41920420D01*
X191682808Y-41920420D01*
X191587570Y-41872801D01*
X191539951Y-41777563D01*
X191539951Y-41682325D01*
X191587570Y-41587087D01*
X191682808Y-41539468D01*
X191920903Y-41539468D01*
X192016141Y-41491849D01*
X192444713Y-41872801D02*
X192539951Y-41920420D01*
X192730427Y-41920420D01*
X192825665Y-41872801D01*
X192873284Y-41777563D01*
X192873284Y-41729944D01*
X192825665Y-41634706D01*
X192730427Y-41587087D01*
X192587570Y-41587087D01*
X192492332Y-41539468D01*
X192444713Y-41444230D01*
X192444713Y-41396611D01*
X192492332Y-41301373D01*
X192587570Y-41253754D01*
X192730427Y-41253754D01*
X192825665Y-41301373D01*
X193158999Y-41253754D02*
X193539951Y-41253754D01*
X193301856Y-40920420D02*
X193301856Y-41777563D01*
X193349475Y-41872801D01*
X193444713Y-41920420D01*
X193539951Y-41920420D01*
X194254237Y-41872801D02*
X194158999Y-41920420D01*
X193968522Y-41920420D01*
X193873284Y-41872801D01*
X193825665Y-41777563D01*
X193825665Y-41396611D01*
X193873284Y-41301373D01*
X193968522Y-41253754D01*
X194158999Y-41253754D01*
X194254237Y-41301373D01*
X194301856Y-41396611D01*
X194301856Y-41491849D01*
X193825665Y-41587087D01*
D11*
X233400600Y-43286680D02*
X91183460Y-43286680D01*
X91183460Y-43286680D02*
X91183460Y-123548140D01*
X233400600Y-123548140D02*
X233400600Y-43286680D01*
X91183460Y-123548140D02*
X233400600Y-123548140D01*
G36*
G01*
X207742481Y-90264571D02*
X205592479Y-90264571D01*
G75*
G02*
X205342480Y-90014572I0J249999D01*
G01*
X205342480Y-88989570D01*
G75*
G02*
X205592479Y-88739571I249999J0D01*
G01*
X207742481Y-88739571D01*
G75*
G02*
X207992480Y-88989570I0J-249999D01*
G01*
X207992480Y-90014572D01*
G75*
G02*
X207742481Y-90264571I-249999J0D01*
G01*
G37*
G36*
G01*
X207742481Y-94939571D02*
X205592479Y-94939571D01*
G75*
G02*
X205342480Y-94689572I0J249999D01*
G01*
X205342480Y-93664570D01*
G75*
G02*
X205592479Y-93414571I249999J0D01*
G01*
X207742481Y-93414571D01*
G75*
G02*
X207992480Y-93664570I0J-249999D01*
G01*
X207992480Y-94689572D01*
G75*
G02*
X207742481Y-94939571I-249999J0D01*
G01*
G37*
D12*
X115305840Y-108569760D03*
D13*
X112593840Y-110474760D03*
X112593840Y-109204760D03*
X112593840Y-107934760D03*
X112593840Y-106664760D03*
X118017840Y-106664760D03*
X118017840Y-107934760D03*
X118017840Y-109204760D03*
X118017840Y-110474760D03*
D12*
X118579900Y-64185800D03*
D13*
X115867900Y-66090800D03*
X115867900Y-64820800D03*
X115867900Y-63550800D03*
X115867900Y-62280800D03*
X121291900Y-62280800D03*
X121291900Y-63550800D03*
X121291900Y-64820800D03*
X121291900Y-66090800D03*
D14*
X179151280Y-107091100D03*
X176611280Y-110401100D03*
X191457580Y-86038500D03*
X188917580Y-89348500D03*
X172603160Y-67428300D03*
X175143160Y-64118300D03*
D15*
X178784060Y-63258700D03*
X178784060Y-68338700D03*
X182094060Y-65798700D03*
X163429760Y-63309500D03*
X163429760Y-68389500D03*
X166739760Y-65849500D03*
X156381260Y-63309500D03*
X156381260Y-68389500D03*
X159691260Y-65849500D03*
X149269260Y-63309500D03*
X149269260Y-68389500D03*
X152579260Y-65849500D03*
D16*
X93062800Y-62051300D03*
X99062800Y-62051300D03*
X99062800Y-73051300D03*
X93062800Y-73051300D03*
G36*
G01*
X137283460Y-115940579D02*
X137283460Y-116840581D01*
G75*
G02*
X137033461Y-117090580I-249999J0D01*
G01*
X136383459Y-117090580D01*
G75*
G02*
X136133460Y-116840581I0J249999D01*
G01*
X136133460Y-115940579D01*
G75*
G02*
X136383459Y-115690580I249999J0D01*
G01*
X137033461Y-115690580D01*
G75*
G02*
X137283460Y-115940579I0J-249999D01*
G01*
G37*
G36*
G01*
X135233460Y-115940579D02*
X135233460Y-116840581D01*
G75*
G02*
X134983461Y-117090580I-249999J0D01*
G01*
X134333459Y-117090580D01*
G75*
G02*
X134083460Y-116840581I0J249999D01*
G01*
X134083460Y-115940579D01*
G75*
G02*
X134333459Y-115690580I249999J0D01*
G01*
X134983461Y-115690580D01*
G75*
G02*
X135233460Y-115940579I0J-249999D01*
G01*
G37*
G36*
G01*
X141275000Y-58790299D02*
X141275000Y-59690301D01*
G75*
G02*
X141025001Y-59940300I-249999J0D01*
G01*
X140374999Y-59940300D01*
G75*
G02*
X140125000Y-59690301I0J249999D01*
G01*
X140125000Y-58790299D01*
G75*
G02*
X140374999Y-58540300I249999J0D01*
G01*
X141025001Y-58540300D01*
G75*
G02*
X141275000Y-58790299I0J-249999D01*
G01*
G37*
G36*
G01*
X139225000Y-58790299D02*
X139225000Y-59690301D01*
G75*
G02*
X138975001Y-59940300I-249999J0D01*
G01*
X138324999Y-59940300D01*
G75*
G02*
X138075000Y-59690301I0J249999D01*
G01*
X138075000Y-58790299D01*
G75*
G02*
X138324999Y-58540300I249999J0D01*
G01*
X138975001Y-58540300D01*
G75*
G02*
X139225000Y-58790299I0J-249999D01*
G01*
G37*
G36*
G01*
X106856999Y-53811400D02*
X107757001Y-53811400D01*
G75*
G02*
X108007000Y-54061399I0J-249999D01*
G01*
X108007000Y-54711401D01*
G75*
G02*
X107757001Y-54961400I-249999J0D01*
G01*
X106856999Y-54961400D01*
G75*
G02*
X106607000Y-54711401I0J249999D01*
G01*
X106607000Y-54061399D01*
G75*
G02*
X106856999Y-53811400I249999J0D01*
G01*
G37*
G36*
G01*
X106856999Y-55861400D02*
X107757001Y-55861400D01*
G75*
G02*
X108007000Y-56111399I0J-249999D01*
G01*
X108007000Y-56761401D01*
G75*
G02*
X107757001Y-57011400I-249999J0D01*
G01*
X106856999Y-57011400D01*
G75*
G02*
X106607000Y-56761401I0J249999D01*
G01*
X106607000Y-56111399D01*
G75*
G02*
X106856999Y-55861400I249999J0D01*
G01*
G37*
G36*
G01*
X140333461Y-116090580D02*
X139433459Y-116090580D01*
G75*
G02*
X139183460Y-115840581I0J249999D01*
G01*
X139183460Y-115190579D01*
G75*
G02*
X139433459Y-114940580I249999J0D01*
G01*
X140333461Y-114940580D01*
G75*
G02*
X140583460Y-115190579I0J-249999D01*
G01*
X140583460Y-115840581D01*
G75*
G02*
X140333461Y-116090580I-249999J0D01*
G01*
G37*
G36*
G01*
X140333461Y-114040580D02*
X139433459Y-114040580D01*
G75*
G02*
X139183460Y-113790581I0J249999D01*
G01*
X139183460Y-113140579D01*
G75*
G02*
X139433459Y-112890580I249999J0D01*
G01*
X140333461Y-112890580D01*
G75*
G02*
X140583460Y-113140579I0J-249999D01*
G01*
X140583460Y-113790581D01*
G75*
G02*
X140333461Y-114040580I-249999J0D01*
G01*
G37*
G36*
G01*
X140224999Y-60890300D02*
X141125001Y-60890300D01*
G75*
G02*
X141375000Y-61140299I0J-249999D01*
G01*
X141375000Y-61790301D01*
G75*
G02*
X141125001Y-62040300I-249999J0D01*
G01*
X140224999Y-62040300D01*
G75*
G02*
X139975000Y-61790301I0J249999D01*
G01*
X139975000Y-61140299D01*
G75*
G02*
X140224999Y-60890300I249999J0D01*
G01*
G37*
G36*
G01*
X140224999Y-62940300D02*
X141125001Y-62940300D01*
G75*
G02*
X141375000Y-63190299I0J-249999D01*
G01*
X141375000Y-63840301D01*
G75*
G02*
X141125001Y-64090300I-249999J0D01*
G01*
X140224999Y-64090300D01*
G75*
G02*
X139975000Y-63840301I0J249999D01*
G01*
X139975000Y-63190299D01*
G75*
G02*
X140224999Y-62940300I249999J0D01*
G01*
G37*
G36*
G01*
X104406279Y-53820260D02*
X105306281Y-53820260D01*
G75*
G02*
X105556280Y-54070259I0J-249999D01*
G01*
X105556280Y-54720261D01*
G75*
G02*
X105306281Y-54970260I-249999J0D01*
G01*
X104406279Y-54970260D01*
G75*
G02*
X104156280Y-54720261I0J249999D01*
G01*
X104156280Y-54070259D01*
G75*
G02*
X104406279Y-53820260I249999J0D01*
G01*
G37*
G36*
G01*
X104406279Y-55870260D02*
X105306281Y-55870260D01*
G75*
G02*
X105556280Y-56120259I0J-249999D01*
G01*
X105556280Y-56770261D01*
G75*
G02*
X105306281Y-57020260I-249999J0D01*
G01*
X104406279Y-57020260D01*
G75*
G02*
X104156280Y-56770261I0J249999D01*
G01*
X104156280Y-56120259D01*
G75*
G02*
X104406279Y-55870260I249999J0D01*
G01*
G37*
G36*
G01*
X127931220Y-108229821D02*
X127931220Y-107329819D01*
G75*
G02*
X128181219Y-107079820I249999J0D01*
G01*
X128831221Y-107079820D01*
G75*
G02*
X129081220Y-107329819I0J-249999D01*
G01*
X129081220Y-108229821D01*
G75*
G02*
X128831221Y-108479820I-249999J0D01*
G01*
X128181219Y-108479820D01*
G75*
G02*
X127931220Y-108229821I0J249999D01*
G01*
G37*
G36*
G01*
X129981220Y-108229821D02*
X129981220Y-107329819D01*
G75*
G02*
X130231219Y-107079820I249999J0D01*
G01*
X130881221Y-107079820D01*
G75*
G02*
X131131220Y-107329819I0J-249999D01*
G01*
X131131220Y-108229821D01*
G75*
G02*
X130881221Y-108479820I-249999J0D01*
G01*
X130231219Y-108479820D01*
G75*
G02*
X129981220Y-108229821I0J249999D01*
G01*
G37*
G36*
G01*
X128991160Y-105109859D02*
X128991160Y-106009861D01*
G75*
G02*
X128741161Y-106259860I-249999J0D01*
G01*
X128091159Y-106259860D01*
G75*
G02*
X127841160Y-106009861I0J249999D01*
G01*
X127841160Y-105109859D01*
G75*
G02*
X128091159Y-104859860I249999J0D01*
G01*
X128741161Y-104859860D01*
G75*
G02*
X128991160Y-105109859I0J-249999D01*
G01*
G37*
G36*
G01*
X126941160Y-105109859D02*
X126941160Y-106009861D01*
G75*
G02*
X126691161Y-106259860I-249999J0D01*
G01*
X126041159Y-106259860D01*
G75*
G02*
X125791160Y-106009861I0J249999D01*
G01*
X125791160Y-105109859D01*
G75*
G02*
X126041159Y-104859860I249999J0D01*
G01*
X126691161Y-104859860D01*
G75*
G02*
X126941160Y-105109859I0J-249999D01*
G01*
G37*
G36*
G01*
X109933460Y-105215581D02*
X109933460Y-104315579D01*
G75*
G02*
X110183459Y-104065580I249999J0D01*
G01*
X110833461Y-104065580D01*
G75*
G02*
X111083460Y-104315579I0J-249999D01*
G01*
X111083460Y-105215581D01*
G75*
G02*
X110833461Y-105465580I-249999J0D01*
G01*
X110183459Y-105465580D01*
G75*
G02*
X109933460Y-105215581I0J249999D01*
G01*
G37*
G36*
G01*
X111983460Y-105215581D02*
X111983460Y-104315579D01*
G75*
G02*
X112233459Y-104065580I249999J0D01*
G01*
X112883461Y-104065580D01*
G75*
G02*
X113133460Y-104315579I0J-249999D01*
G01*
X113133460Y-105215581D01*
G75*
G02*
X112883461Y-105465580I-249999J0D01*
G01*
X112233459Y-105465580D01*
G75*
G02*
X111983460Y-105215581I0J249999D01*
G01*
G37*
G36*
G01*
X123961960Y-105132719D02*
X123961960Y-106032721D01*
G75*
G02*
X123711961Y-106282720I-249999J0D01*
G01*
X123061959Y-106282720D01*
G75*
G02*
X122811960Y-106032721I0J249999D01*
G01*
X122811960Y-105132719D01*
G75*
G02*
X123061959Y-104882720I249999J0D01*
G01*
X123711961Y-104882720D01*
G75*
G02*
X123961960Y-105132719I0J-249999D01*
G01*
G37*
G36*
G01*
X121911960Y-105132719D02*
X121911960Y-106032721D01*
G75*
G02*
X121661961Y-106282720I-249999J0D01*
G01*
X121011959Y-106282720D01*
G75*
G02*
X120761960Y-106032721I0J249999D01*
G01*
X120761960Y-105132719D01*
G75*
G02*
X121011959Y-104882720I249999J0D01*
G01*
X121661961Y-104882720D01*
G75*
G02*
X121911960Y-105132719I0J-249999D01*
G01*
G37*
G36*
G01*
X104866861Y-116714180D02*
X103966859Y-116714180D01*
G75*
G02*
X103716860Y-116464181I0J249999D01*
G01*
X103716860Y-115814179D01*
G75*
G02*
X103966859Y-115564180I249999J0D01*
G01*
X104866861Y-115564180D01*
G75*
G02*
X105116860Y-115814179I0J-249999D01*
G01*
X105116860Y-116464181D01*
G75*
G02*
X104866861Y-116714180I-249999J0D01*
G01*
G37*
G36*
G01*
X104866861Y-114664180D02*
X103966859Y-114664180D01*
G75*
G02*
X103716860Y-114414181I0J249999D01*
G01*
X103716860Y-113764179D01*
G75*
G02*
X103966859Y-113514180I249999J0D01*
G01*
X104866861Y-113514180D01*
G75*
G02*
X105116860Y-113764179I0J-249999D01*
G01*
X105116860Y-114414181D01*
G75*
G02*
X104866861Y-114664180I-249999J0D01*
G01*
G37*
G36*
G01*
X106953899Y-113517880D02*
X107853901Y-113517880D01*
G75*
G02*
X108103900Y-113767879I0J-249999D01*
G01*
X108103900Y-114417881D01*
G75*
G02*
X107853901Y-114667880I-249999J0D01*
G01*
X106953899Y-114667880D01*
G75*
G02*
X106703900Y-114417881I0J249999D01*
G01*
X106703900Y-113767879D01*
G75*
G02*
X106953899Y-113517880I249999J0D01*
G01*
G37*
G36*
G01*
X106953899Y-115567880D02*
X107853901Y-115567880D01*
G75*
G02*
X108103900Y-115817879I0J-249999D01*
G01*
X108103900Y-116467881D01*
G75*
G02*
X107853901Y-116717880I-249999J0D01*
G01*
X106953899Y-116717880D01*
G75*
G02*
X106703900Y-116467881I0J249999D01*
G01*
X106703900Y-115817879D01*
G75*
G02*
X106953899Y-115567880I249999J0D01*
G01*
G37*
G36*
G01*
X131633160Y-63962701D02*
X131633160Y-63062699D01*
G75*
G02*
X131883159Y-62812700I249999J0D01*
G01*
X132533161Y-62812700D01*
G75*
G02*
X132783160Y-63062699I0J-249999D01*
G01*
X132783160Y-63962701D01*
G75*
G02*
X132533161Y-64212700I-249999J0D01*
G01*
X131883159Y-64212700D01*
G75*
G02*
X131633160Y-63962701I0J249999D01*
G01*
G37*
G36*
G01*
X133683160Y-63962701D02*
X133683160Y-63062699D01*
G75*
G02*
X133933159Y-62812700I249999J0D01*
G01*
X134583161Y-62812700D01*
G75*
G02*
X134833160Y-63062699I0J-249999D01*
G01*
X134833160Y-63962701D01*
G75*
G02*
X134583161Y-64212700I-249999J0D01*
G01*
X133933159Y-64212700D01*
G75*
G02*
X133683160Y-63962701I0J249999D01*
G01*
G37*
G36*
G01*
X132785920Y-60974819D02*
X132785920Y-61874821D01*
G75*
G02*
X132535921Y-62124820I-249999J0D01*
G01*
X131885919Y-62124820D01*
G75*
G02*
X131635920Y-61874821I0J249999D01*
G01*
X131635920Y-60974819D01*
G75*
G02*
X131885919Y-60724820I249999J0D01*
G01*
X132535921Y-60724820D01*
G75*
G02*
X132785920Y-60974819I0J-249999D01*
G01*
G37*
G36*
G01*
X130735920Y-60974819D02*
X130735920Y-61874821D01*
G75*
G02*
X130485921Y-62124820I-249999J0D01*
G01*
X129835919Y-62124820D01*
G75*
G02*
X129585920Y-61874821I0J249999D01*
G01*
X129585920Y-60974819D01*
G75*
G02*
X129835919Y-60724820I249999J0D01*
G01*
X130485921Y-60724820D01*
G75*
G02*
X130735920Y-60974819I0J-249999D01*
G01*
G37*
G36*
G01*
X112857701Y-63195000D02*
X111957699Y-63195000D01*
G75*
G02*
X111707700Y-62945001I0J249999D01*
G01*
X111707700Y-62294999D01*
G75*
G02*
X111957699Y-62045000I249999J0D01*
G01*
X112857701Y-62045000D01*
G75*
G02*
X113107700Y-62294999I0J-249999D01*
G01*
X113107700Y-62945001D01*
G75*
G02*
X112857701Y-63195000I-249999J0D01*
G01*
G37*
G36*
G01*
X112857701Y-61145000D02*
X111957699Y-61145000D01*
G75*
G02*
X111707700Y-60895001I0J249999D01*
G01*
X111707700Y-60244999D01*
G75*
G02*
X111957699Y-59995000I249999J0D01*
G01*
X112857701Y-59995000D01*
G75*
G02*
X113107700Y-60244999I0J-249999D01*
G01*
X113107700Y-60895001D01*
G75*
G02*
X112857701Y-61145000I-249999J0D01*
G01*
G37*
G36*
G01*
X127507800Y-60992599D02*
X127507800Y-61892601D01*
G75*
G02*
X127257801Y-62142600I-249999J0D01*
G01*
X126607799Y-62142600D01*
G75*
G02*
X126357800Y-61892601I0J249999D01*
G01*
X126357800Y-60992599D01*
G75*
G02*
X126607799Y-60742600I249999J0D01*
G01*
X127257801Y-60742600D01*
G75*
G02*
X127507800Y-60992599I0J-249999D01*
G01*
G37*
G36*
G01*
X125457800Y-60992599D02*
X125457800Y-61892601D01*
G75*
G02*
X125207801Y-62142600I-249999J0D01*
G01*
X124557799Y-62142600D01*
G75*
G02*
X124307800Y-61892601I0J249999D01*
G01*
X124307800Y-60992599D01*
G75*
G02*
X124557799Y-60742600I249999J0D01*
G01*
X125207801Y-60742600D01*
G75*
G02*
X125457800Y-60992599I0J-249999D01*
G01*
G37*
G36*
G01*
X107947039Y-70457260D02*
X108847041Y-70457260D01*
G75*
G02*
X109097040Y-70707259I0J-249999D01*
G01*
X109097040Y-71357261D01*
G75*
G02*
X108847041Y-71607260I-249999J0D01*
G01*
X107947039Y-71607260D01*
G75*
G02*
X107697040Y-71357261I0J249999D01*
G01*
X107697040Y-70707259D01*
G75*
G02*
X107947039Y-70457260I249999J0D01*
G01*
G37*
G36*
G01*
X107947039Y-72507260D02*
X108847041Y-72507260D01*
G75*
G02*
X109097040Y-72757259I0J-249999D01*
G01*
X109097040Y-73407261D01*
G75*
G02*
X108847041Y-73657260I-249999J0D01*
G01*
X107947039Y-73657260D01*
G75*
G02*
X107697040Y-73407261I0J249999D01*
G01*
X107697040Y-72757259D01*
G75*
G02*
X107947039Y-72507260I249999J0D01*
G01*
G37*
G36*
G01*
X107931799Y-66489780D02*
X108831801Y-66489780D01*
G75*
G02*
X109081800Y-66739779I0J-249999D01*
G01*
X109081800Y-67389781D01*
G75*
G02*
X108831801Y-67639780I-249999J0D01*
G01*
X107931799Y-67639780D01*
G75*
G02*
X107681800Y-67389781I0J249999D01*
G01*
X107681800Y-66739779D01*
G75*
G02*
X107931799Y-66489780I249999J0D01*
G01*
G37*
G36*
G01*
X107931799Y-68539780D02*
X108831801Y-68539780D01*
G75*
G02*
X109081800Y-68789779I0J-249999D01*
G01*
X109081800Y-69439781D01*
G75*
G02*
X108831801Y-69689780I-249999J0D01*
G01*
X107931799Y-69689780D01*
G75*
G02*
X107681800Y-69439781I0J249999D01*
G01*
X107681800Y-68789779D01*
G75*
G02*
X107931799Y-68539780I249999J0D01*
G01*
G37*
D17*
X122596040Y-113456720D03*
X128996040Y-113456720D03*
X125594220Y-69144680D03*
X131994220Y-69144680D03*
D18*
X117379120Y-115204240D03*
X112379120Y-115204240D03*
X120850000Y-71215300D03*
X115850000Y-71215300D03*
G36*
G01*
X131277200Y-112714680D02*
X132527200Y-112714680D01*
G75*
G02*
X132777200Y-112964680I0J-250000D01*
G01*
X132777200Y-113889680D01*
G75*
G02*
X132527200Y-114139680I-250000J0D01*
G01*
X131277200Y-114139680D01*
G75*
G02*
X131027200Y-113889680I0J250000D01*
G01*
X131027200Y-112964680D01*
G75*
G02*
X131277200Y-112714680I250000J0D01*
G01*
G37*
G36*
G01*
X131277200Y-115689680D02*
X132527200Y-115689680D01*
G75*
G02*
X132777200Y-115939680I0J-250000D01*
G01*
X132777200Y-116864680D01*
G75*
G02*
X132527200Y-117114680I-250000J0D01*
G01*
X131277200Y-117114680D01*
G75*
G02*
X131027200Y-116864680I0J250000D01*
G01*
X131027200Y-115939680D01*
G75*
G02*
X131277200Y-115689680I250000J0D01*
G01*
G37*
G36*
G01*
X116789000Y-111950079D02*
X116789000Y-112850081D01*
G75*
G02*
X116539001Y-113100080I-249999J0D01*
G01*
X115888999Y-113100080D01*
G75*
G02*
X115639000Y-112850081I0J249999D01*
G01*
X115639000Y-111950079D01*
G75*
G02*
X115888999Y-111700080I249999J0D01*
G01*
X116539001Y-111700080D01*
G75*
G02*
X116789000Y-111950079I0J-249999D01*
G01*
G37*
G36*
G01*
X114739000Y-111950079D02*
X114739000Y-112850081D01*
G75*
G02*
X114489001Y-113100080I-249999J0D01*
G01*
X113838999Y-113100080D01*
G75*
G02*
X113589000Y-112850081I0J249999D01*
G01*
X113589000Y-111950079D01*
G75*
G02*
X113838999Y-111700080I249999J0D01*
G01*
X114489001Y-111700080D01*
G75*
G02*
X114739000Y-111950079I0J-249999D01*
G01*
G37*
G36*
G01*
X120764500Y-108219661D02*
X120764500Y-107319659D01*
G75*
G02*
X121014499Y-107069660I249999J0D01*
G01*
X121664501Y-107069660D01*
G75*
G02*
X121914500Y-107319659I0J-249999D01*
G01*
X121914500Y-108219661D01*
G75*
G02*
X121664501Y-108469660I-249999J0D01*
G01*
X121014499Y-108469660D01*
G75*
G02*
X120764500Y-108219661I0J249999D01*
G01*
G37*
G36*
G01*
X122814500Y-108219661D02*
X122814500Y-107319659D01*
G75*
G02*
X123064499Y-107069660I249999J0D01*
G01*
X123714501Y-107069660D01*
G75*
G02*
X123964500Y-107319659I0J-249999D01*
G01*
X123964500Y-108219661D01*
G75*
G02*
X123714501Y-108469660I-249999J0D01*
G01*
X123064499Y-108469660D01*
G75*
G02*
X122814500Y-108219661I0J249999D01*
G01*
G37*
G36*
G01*
X105788820Y-108528960D02*
X105788820Y-109778960D01*
G75*
G02*
X105538820Y-110028960I-250000J0D01*
G01*
X104613820Y-110028960D01*
G75*
G02*
X104363820Y-109778960I0J250000D01*
G01*
X104363820Y-108528960D01*
G75*
G02*
X104613820Y-108278960I250000J0D01*
G01*
X105538820Y-108278960D01*
G75*
G02*
X105788820Y-108528960I0J-250000D01*
G01*
G37*
G36*
G01*
X102813820Y-108528960D02*
X102813820Y-109778960D01*
G75*
G02*
X102563820Y-110028960I-250000J0D01*
G01*
X101638820Y-110028960D01*
G75*
G02*
X101388820Y-109778960I0J250000D01*
G01*
X101388820Y-108528960D01*
G75*
G02*
X101638820Y-108278960I250000J0D01*
G01*
X102563820Y-108278960D01*
G75*
G02*
X102813820Y-108528960I0J-250000D01*
G01*
G37*
G36*
G01*
X134138220Y-68430580D02*
X135388220Y-68430580D01*
G75*
G02*
X135638220Y-68680580I0J-250000D01*
G01*
X135638220Y-69605580D01*
G75*
G02*
X135388220Y-69855580I-250000J0D01*
G01*
X134138220Y-69855580D01*
G75*
G02*
X133888220Y-69605580I0J250000D01*
G01*
X133888220Y-68680580D01*
G75*
G02*
X134138220Y-68430580I250000J0D01*
G01*
G37*
G36*
G01*
X134138220Y-71405580D02*
X135388220Y-71405580D01*
G75*
G02*
X135638220Y-71655580I0J-250000D01*
G01*
X135638220Y-72580580D01*
G75*
G02*
X135388220Y-72830580I-250000J0D01*
G01*
X134138220Y-72830580D01*
G75*
G02*
X133888220Y-72580580I0J250000D01*
G01*
X133888220Y-71655580D01*
G75*
G02*
X134138220Y-71405580I250000J0D01*
G01*
G37*
G36*
G01*
X120132800Y-67710899D02*
X120132800Y-68610901D01*
G75*
G02*
X119882801Y-68860900I-249999J0D01*
G01*
X119232799Y-68860900D01*
G75*
G02*
X118982800Y-68610901I0J249999D01*
G01*
X118982800Y-67710899D01*
G75*
G02*
X119232799Y-67460900I249999J0D01*
G01*
X119882801Y-67460900D01*
G75*
G02*
X120132800Y-67710899I0J-249999D01*
G01*
G37*
G36*
G01*
X118082800Y-67710899D02*
X118082800Y-68610901D01*
G75*
G02*
X117832801Y-68860900I-249999J0D01*
G01*
X117182799Y-68860900D01*
G75*
G02*
X116932800Y-68610901I0J249999D01*
G01*
X116932800Y-67710899D01*
G75*
G02*
X117182799Y-67460900I249999J0D01*
G01*
X117832801Y-67460900D01*
G75*
G02*
X118082800Y-67710899I0J-249999D01*
G01*
G37*
G36*
G01*
X124277320Y-64016041D02*
X124277320Y-63116039D01*
G75*
G02*
X124527319Y-62866040I249999J0D01*
G01*
X125177321Y-62866040D01*
G75*
G02*
X125427320Y-63116039I0J-249999D01*
G01*
X125427320Y-64016041D01*
G75*
G02*
X125177321Y-64266040I-249999J0D01*
G01*
X124527319Y-64266040D01*
G75*
G02*
X124277320Y-64016041I0J249999D01*
G01*
G37*
G36*
G01*
X126327320Y-64016041D02*
X126327320Y-63116039D01*
G75*
G02*
X126577319Y-62866040I249999J0D01*
G01*
X127227321Y-62866040D01*
G75*
G02*
X127477320Y-63116039I0J-249999D01*
G01*
X127477320Y-64016041D01*
G75*
G02*
X127227321Y-64266040I-249999J0D01*
G01*
X126577319Y-64266040D01*
G75*
G02*
X126327320Y-64016041I0J249999D01*
G01*
G37*
G36*
G01*
X109019500Y-65560300D02*
X107769500Y-65560300D01*
G75*
G02*
X107519500Y-65310300I0J250000D01*
G01*
X107519500Y-64385300D01*
G75*
G02*
X107769500Y-64135300I250000J0D01*
G01*
X109019500Y-64135300D01*
G75*
G02*
X109269500Y-64385300I0J-250000D01*
G01*
X109269500Y-65310300D01*
G75*
G02*
X109019500Y-65560300I-250000J0D01*
G01*
G37*
G36*
G01*
X109019500Y-62585300D02*
X107769500Y-62585300D01*
G75*
G02*
X107519500Y-62335300I0J250000D01*
G01*
X107519500Y-61410300D01*
G75*
G02*
X107769500Y-61160300I250000J0D01*
G01*
X109019500Y-61160300D01*
G75*
G02*
X109269500Y-61410300I0J-250000D01*
G01*
X109269500Y-62335300D01*
G75*
G02*
X109019500Y-62585300I-250000J0D01*
G01*
G37*
D19*
G36*
X116225140Y-90839420D02*
G01*
X115425140Y-90839420D01*
X115425140Y-89339420D01*
X116225140Y-89339420D01*
X116225140Y-90839420D01*
G37*
G36*
X119225140Y-90839420D02*
G01*
X118425140Y-90839420D01*
X118425140Y-89339420D01*
X119225140Y-89339420D01*
X119225140Y-90839420D01*
G37*
G36*
X117875140Y-90839420D02*
G01*
X116775140Y-90839420D01*
X116775140Y-89339420D01*
X117875140Y-89339420D01*
X117875140Y-90839420D01*
G37*
G36*
X119825140Y-88870920D02*
G01*
X114825140Y-88870920D01*
X114825140Y-85870920D01*
X119825140Y-85870920D01*
X119825140Y-88870920D01*
G37*
G36*
G01*
X158437500Y-91488720D02*
X157962500Y-91488720D01*
G75*
G02*
X157725000Y-91251220I0J237500D01*
G01*
X157725000Y-90676220D01*
G75*
G02*
X157962500Y-90438720I237500J0D01*
G01*
X158437500Y-90438720D01*
G75*
G02*
X158675000Y-90676220I0J-237500D01*
G01*
X158675000Y-91251220D01*
G75*
G02*
X158437500Y-91488720I-237500J0D01*
G01*
G37*
G36*
G01*
X158437500Y-89738720D02*
X157962500Y-89738720D01*
G75*
G02*
X157725000Y-89501220I0J237500D01*
G01*
X157725000Y-88926220D01*
G75*
G02*
X157962500Y-88688720I237500J0D01*
G01*
X158437500Y-88688720D01*
G75*
G02*
X158675000Y-88926220I0J-237500D01*
G01*
X158675000Y-89501220D01*
G75*
G02*
X158437500Y-89738720I-237500J0D01*
G01*
G37*
D20*
X181158680Y-79188940D03*
X181958680Y-79188940D03*
X182758680Y-79188940D03*
X183558680Y-79188940D03*
D21*
X184858680Y-80488940D03*
X184858680Y-81288940D03*
X184858680Y-82088940D03*
X184858680Y-82888940D03*
D20*
X183558680Y-84188940D03*
X182758680Y-84188940D03*
X181958680Y-84188940D03*
X181158680Y-84188940D03*
D21*
X179858680Y-82888940D03*
X179858680Y-82088940D03*
X179858680Y-81288940D03*
X179858680Y-80488940D03*
D20*
X181158680Y-97090201D03*
X181958680Y-97090201D03*
X182758680Y-97090201D03*
X183558680Y-97090201D03*
D21*
X184858680Y-98390201D03*
X184858680Y-99190201D03*
X184858680Y-99990201D03*
X184858680Y-100790201D03*
D20*
X183558680Y-102090201D03*
X182758680Y-102090201D03*
X181958680Y-102090201D03*
X181158680Y-102090201D03*
D21*
X179858680Y-100790201D03*
X179858680Y-99990201D03*
X179858680Y-99190201D03*
X179858680Y-98390201D03*
G36*
G01*
X176377080Y-104250500D02*
X176377080Y-103775500D01*
G75*
G02*
X176614580Y-103538000I237500J0D01*
G01*
X177189580Y-103538000D01*
G75*
G02*
X177427080Y-103775500I0J-237500D01*
G01*
X177427080Y-104250500D01*
G75*
G02*
X177189580Y-104488000I-237500J0D01*
G01*
X176614580Y-104488000D01*
G75*
G02*
X176377080Y-104250500I0J237500D01*
G01*
G37*
G36*
G01*
X174627080Y-104250500D02*
X174627080Y-103775500D01*
G75*
G02*
X174864580Y-103538000I237500J0D01*
G01*
X175439580Y-103538000D01*
G75*
G02*
X175677080Y-103775500I0J-237500D01*
G01*
X175677080Y-104250500D01*
G75*
G02*
X175439580Y-104488000I-237500J0D01*
G01*
X174864580Y-104488000D01*
G75*
G02*
X174627080Y-104250500I0J237500D01*
G01*
G37*
G36*
G01*
X175646600Y-102109260D02*
X175646600Y-102584260D01*
G75*
G02*
X175409100Y-102821760I-237500J0D01*
G01*
X174834100Y-102821760D01*
G75*
G02*
X174596600Y-102584260I0J237500D01*
G01*
X174596600Y-102109260D01*
G75*
G02*
X174834100Y-101871760I237500J0D01*
G01*
X175409100Y-101871760D01*
G75*
G02*
X175646600Y-102109260I0J-237500D01*
G01*
G37*
G36*
G01*
X177396600Y-102109260D02*
X177396600Y-102584260D01*
G75*
G02*
X177159100Y-102821760I-237500J0D01*
G01*
X176584100Y-102821760D01*
G75*
G02*
X176346600Y-102584260I0J237500D01*
G01*
X176346600Y-102109260D01*
G75*
G02*
X176584100Y-101871760I237500J0D01*
G01*
X177159100Y-101871760D01*
G75*
G02*
X177396600Y-102109260I0J-237500D01*
G01*
G37*
G36*
G01*
X184083440Y-104275900D02*
X184083440Y-103800900D01*
G75*
G02*
X184320940Y-103563400I237500J0D01*
G01*
X184895940Y-103563400D01*
G75*
G02*
X185133440Y-103800900I0J-237500D01*
G01*
X185133440Y-104275900D01*
G75*
G02*
X184895940Y-104513400I-237500J0D01*
G01*
X184320940Y-104513400D01*
G75*
G02*
X184083440Y-104275900I0J237500D01*
G01*
G37*
G36*
G01*
X182333440Y-104275900D02*
X182333440Y-103800900D01*
G75*
G02*
X182570940Y-103563400I237500J0D01*
G01*
X183145940Y-103563400D01*
G75*
G02*
X183383440Y-103800900I0J-237500D01*
G01*
X183383440Y-104275900D01*
G75*
G02*
X183145940Y-104513400I-237500J0D01*
G01*
X182570940Y-104513400D01*
G75*
G02*
X182333440Y-104275900I0J237500D01*
G01*
G37*
G36*
G01*
X177057160Y-92800000D02*
X177057160Y-94050000D01*
G75*
G02*
X176807160Y-94300000I-250000J0D01*
G01*
X175882160Y-94300000D01*
G75*
G02*
X175632160Y-94050000I0J250000D01*
G01*
X175632160Y-92800000D01*
G75*
G02*
X175882160Y-92550000I250000J0D01*
G01*
X176807160Y-92550000D01*
G75*
G02*
X177057160Y-92800000I0J-250000D01*
G01*
G37*
G36*
G01*
X180032160Y-92800000D02*
X180032160Y-94050000D01*
G75*
G02*
X179782160Y-94300000I-250000J0D01*
G01*
X178857160Y-94300000D01*
G75*
G02*
X178607160Y-94050000I0J250000D01*
G01*
X178607160Y-92800000D01*
G75*
G02*
X178857160Y-92550000I250000J0D01*
G01*
X179782160Y-92550000D01*
G75*
G02*
X180032160Y-92800000I0J-250000D01*
G01*
G37*
G36*
G01*
X178241680Y-95162500D02*
X178241680Y-95637500D01*
G75*
G02*
X178004180Y-95875000I-237500J0D01*
G01*
X177429180Y-95875000D01*
G75*
G02*
X177191680Y-95637500I0J237500D01*
G01*
X177191680Y-95162500D01*
G75*
G02*
X177429180Y-94925000I237500J0D01*
G01*
X178004180Y-94925000D01*
G75*
G02*
X178241680Y-95162500I0J-237500D01*
G01*
G37*
G36*
G01*
X179991680Y-95162500D02*
X179991680Y-95637500D01*
G75*
G02*
X179754180Y-95875000I-237500J0D01*
G01*
X179179180Y-95875000D01*
G75*
G02*
X178941680Y-95637500I0J237500D01*
G01*
X178941680Y-95162500D01*
G75*
G02*
X179179180Y-94925000I237500J0D01*
G01*
X179754180Y-94925000D01*
G75*
G02*
X179991680Y-95162500I0J-237500D01*
G01*
G37*
G36*
G01*
X186316680Y-94050000D02*
X186316680Y-92800000D01*
G75*
G02*
X186566680Y-92550000I250000J0D01*
G01*
X187491680Y-92550000D01*
G75*
G02*
X187741680Y-92800000I0J-250000D01*
G01*
X187741680Y-94050000D01*
G75*
G02*
X187491680Y-94300000I-250000J0D01*
G01*
X186566680Y-94300000D01*
G75*
G02*
X186316680Y-94050000I0J250000D01*
G01*
G37*
G36*
G01*
X183341680Y-94050000D02*
X183341680Y-92800000D01*
G75*
G02*
X183591680Y-92550000I250000J0D01*
G01*
X184516680Y-92550000D01*
G75*
G02*
X184766680Y-92800000I0J-250000D01*
G01*
X184766680Y-94050000D01*
G75*
G02*
X184516680Y-94300000I-250000J0D01*
G01*
X183591680Y-94300000D01*
G75*
G02*
X183341680Y-94050000I0J250000D01*
G01*
G37*
G36*
G01*
X185066680Y-95637500D02*
X185066680Y-95162500D01*
G75*
G02*
X185304180Y-94925000I237500J0D01*
G01*
X185879180Y-94925000D01*
G75*
G02*
X186116680Y-95162500I0J-237500D01*
G01*
X186116680Y-95637500D01*
G75*
G02*
X185879180Y-95875000I-237500J0D01*
G01*
X185304180Y-95875000D01*
G75*
G02*
X185066680Y-95637500I0J237500D01*
G01*
G37*
G36*
G01*
X183316680Y-95637500D02*
X183316680Y-95162500D01*
G75*
G02*
X183554180Y-94925000I237500J0D01*
G01*
X184129180Y-94925000D01*
G75*
G02*
X184366680Y-95162500I0J-237500D01*
G01*
X184366680Y-95637500D01*
G75*
G02*
X184129180Y-95875000I-237500J0D01*
G01*
X183554180Y-95875000D01*
G75*
G02*
X183316680Y-95637500I0J237500D01*
G01*
G37*
G36*
G01*
X192416680Y-95550000D02*
X191166680Y-95550000D01*
G75*
G02*
X190916680Y-95300000I0J250000D01*
G01*
X190916680Y-94375000D01*
G75*
G02*
X191166680Y-94125000I250000J0D01*
G01*
X192416680Y-94125000D01*
G75*
G02*
X192666680Y-94375000I0J-250000D01*
G01*
X192666680Y-95300000D01*
G75*
G02*
X192416680Y-95550000I-250000J0D01*
G01*
G37*
G36*
G01*
X192416680Y-98525000D02*
X191166680Y-98525000D01*
G75*
G02*
X190916680Y-98275000I0J250000D01*
G01*
X190916680Y-97350000D01*
G75*
G02*
X191166680Y-97100000I250000J0D01*
G01*
X192416680Y-97100000D01*
G75*
G02*
X192666680Y-97350000I0J-250000D01*
G01*
X192666680Y-98275000D01*
G75*
G02*
X192416680Y-98525000I-250000J0D01*
G01*
G37*
G36*
G01*
X189787140Y-96805520D02*
X189312140Y-96805520D01*
G75*
G02*
X189074640Y-96568020I0J237500D01*
G01*
X189074640Y-95993020D01*
G75*
G02*
X189312140Y-95755520I237500J0D01*
G01*
X189787140Y-95755520D01*
G75*
G02*
X190024640Y-95993020I0J-237500D01*
G01*
X190024640Y-96568020D01*
G75*
G02*
X189787140Y-96805520I-237500J0D01*
G01*
G37*
G36*
G01*
X189787140Y-98555520D02*
X189312140Y-98555520D01*
G75*
G02*
X189074640Y-98318020I0J237500D01*
G01*
X189074640Y-97743020D01*
G75*
G02*
X189312140Y-97505520I237500J0D01*
G01*
X189787140Y-97505520D01*
G75*
G02*
X190024640Y-97743020I0J-237500D01*
G01*
X190024640Y-98318020D01*
G75*
G02*
X189787140Y-98555520I-237500J0D01*
G01*
G37*
G36*
G01*
X187866900Y-96799200D02*
X187391900Y-96799200D01*
G75*
G02*
X187154400Y-96561700I0J237500D01*
G01*
X187154400Y-95986700D01*
G75*
G02*
X187391900Y-95749200I237500J0D01*
G01*
X187866900Y-95749200D01*
G75*
G02*
X188104400Y-95986700I0J-237500D01*
G01*
X188104400Y-96561700D01*
G75*
G02*
X187866900Y-96799200I-237500J0D01*
G01*
G37*
G36*
G01*
X187866900Y-98549200D02*
X187391900Y-98549200D01*
G75*
G02*
X187154400Y-98311700I0J237500D01*
G01*
X187154400Y-97736700D01*
G75*
G02*
X187391900Y-97499200I237500J0D01*
G01*
X187866900Y-97499200D01*
G75*
G02*
X188104400Y-97736700I0J-237500D01*
G01*
X188104400Y-98311700D01*
G75*
G02*
X187866900Y-98549200I-237500J0D01*
G01*
G37*
G36*
G01*
X179197520Y-103780580D02*
X179197520Y-104255580D01*
G75*
G02*
X178960020Y-104493080I-237500J0D01*
G01*
X178385020Y-104493080D01*
G75*
G02*
X178147520Y-104255580I0J237500D01*
G01*
X178147520Y-103780580D01*
G75*
G02*
X178385020Y-103543080I237500J0D01*
G01*
X178960020Y-103543080D01*
G75*
G02*
X179197520Y-103780580I0J-237500D01*
G01*
G37*
G36*
G01*
X180947520Y-103780580D02*
X180947520Y-104255580D01*
G75*
G02*
X180710020Y-104493080I-237500J0D01*
G01*
X180135020Y-104493080D01*
G75*
G02*
X179897520Y-104255580I0J237500D01*
G01*
X179897520Y-103780580D01*
G75*
G02*
X180135020Y-103543080I237500J0D01*
G01*
X180710020Y-103543080D01*
G75*
G02*
X180947520Y-103780580I0J-237500D01*
G01*
G37*
G36*
G01*
X184103760Y-105881180D02*
X184103760Y-105406180D01*
G75*
G02*
X184341260Y-105168680I237500J0D01*
G01*
X184916260Y-105168680D01*
G75*
G02*
X185153760Y-105406180I0J-237500D01*
G01*
X185153760Y-105881180D01*
G75*
G02*
X184916260Y-106118680I-237500J0D01*
G01*
X184341260Y-106118680D01*
G75*
G02*
X184103760Y-105881180I0J237500D01*
G01*
G37*
G36*
G01*
X182353760Y-105881180D02*
X182353760Y-105406180D01*
G75*
G02*
X182591260Y-105168680I237500J0D01*
G01*
X183166260Y-105168680D01*
G75*
G02*
X183403760Y-105406180I0J-237500D01*
G01*
X183403760Y-105881180D01*
G75*
G02*
X183166260Y-106118680I-237500J0D01*
G01*
X182591260Y-106118680D01*
G75*
G02*
X182353760Y-105881180I0J237500D01*
G01*
G37*
D22*
X136344820Y-87897900D03*
X136844820Y-87897900D03*
X137344820Y-87897900D03*
X137844820Y-87897900D03*
D23*
X138544820Y-88597900D03*
X138544820Y-89097900D03*
X138544820Y-89597900D03*
X138544820Y-90097900D03*
D22*
X137844820Y-90797900D03*
X137344820Y-90797900D03*
X136844820Y-90797900D03*
X136344820Y-90797900D03*
D23*
X135644820Y-90097900D03*
X135644820Y-89597900D03*
X135644820Y-89097900D03*
X135644820Y-88597900D03*
D24*
X101211380Y-88344500D03*
X102161380Y-90344500D03*
X100261380Y-90344500D03*
D25*
X230474520Y-91839571D03*
X230474520Y-95014571D03*
X230474520Y-88664571D03*
X94073980Y-90363040D03*
X94073980Y-93538040D03*
X94073980Y-87188040D03*
D26*
X106487340Y-90595260D03*
X106487340Y-90095260D03*
X106102340Y-90595260D03*
X106102340Y-90095260D03*
X105717340Y-90345260D03*
G36*
G01*
X176158640Y-86079340D02*
X176158640Y-85604340D01*
G75*
G02*
X176396140Y-85366840I237500J0D01*
G01*
X176971140Y-85366840D01*
G75*
G02*
X177208640Y-85604340I0J-237500D01*
G01*
X177208640Y-86079340D01*
G75*
G02*
X176971140Y-86316840I-237500J0D01*
G01*
X176396140Y-86316840D01*
G75*
G02*
X176158640Y-86079340I0J237500D01*
G01*
G37*
G36*
G01*
X174408640Y-86079340D02*
X174408640Y-85604340D01*
G75*
G02*
X174646140Y-85366840I237500J0D01*
G01*
X175221140Y-85366840D01*
G75*
G02*
X175458640Y-85604340I0J-237500D01*
G01*
X175458640Y-86079340D01*
G75*
G02*
X175221140Y-86316840I-237500J0D01*
G01*
X174646140Y-86316840D01*
G75*
G02*
X174408640Y-86079340I0J237500D01*
G01*
G37*
G36*
G01*
X175454800Y-83978740D02*
X175454800Y-84453740D01*
G75*
G02*
X175217300Y-84691240I-237500J0D01*
G01*
X174642300Y-84691240D01*
G75*
G02*
X174404800Y-84453740I0J237500D01*
G01*
X174404800Y-83978740D01*
G75*
G02*
X174642300Y-83741240I237500J0D01*
G01*
X175217300Y-83741240D01*
G75*
G02*
X175454800Y-83978740I0J-237500D01*
G01*
G37*
G36*
G01*
X177204800Y-83978740D02*
X177204800Y-84453740D01*
G75*
G02*
X176967300Y-84691240I-237500J0D01*
G01*
X176392300Y-84691240D01*
G75*
G02*
X176154800Y-84453740I0J237500D01*
G01*
X176154800Y-83978740D01*
G75*
G02*
X176392300Y-83741240I237500J0D01*
G01*
X176967300Y-83741240D01*
G75*
G02*
X177204800Y-83978740I0J-237500D01*
G01*
G37*
G36*
G01*
X183872620Y-86107280D02*
X183872620Y-85632280D01*
G75*
G02*
X184110120Y-85394780I237500J0D01*
G01*
X184685120Y-85394780D01*
G75*
G02*
X184922620Y-85632280I0J-237500D01*
G01*
X184922620Y-86107280D01*
G75*
G02*
X184685120Y-86344780I-237500J0D01*
G01*
X184110120Y-86344780D01*
G75*
G02*
X183872620Y-86107280I0J237500D01*
G01*
G37*
G36*
G01*
X182122620Y-86107280D02*
X182122620Y-85632280D01*
G75*
G02*
X182360120Y-85394780I237500J0D01*
G01*
X182935120Y-85394780D01*
G75*
G02*
X183172620Y-85632280I0J-237500D01*
G01*
X183172620Y-86107280D01*
G75*
G02*
X182935120Y-86344780I-237500J0D01*
G01*
X182360120Y-86344780D01*
G75*
G02*
X182122620Y-86107280I0J237500D01*
G01*
G37*
G36*
G01*
X121587681Y-92718360D02*
X120687679Y-92718360D01*
G75*
G02*
X120437680Y-92468361I0J249999D01*
G01*
X120437680Y-91818359D01*
G75*
G02*
X120687679Y-91568360I249999J0D01*
G01*
X121587681Y-91568360D01*
G75*
G02*
X121837680Y-91818359I0J-249999D01*
G01*
X121837680Y-92468361D01*
G75*
G02*
X121587681Y-92718360I-249999J0D01*
G01*
G37*
G36*
G01*
X121587681Y-94768360D02*
X120687679Y-94768360D01*
G75*
G02*
X120437680Y-94518361I0J249999D01*
G01*
X120437680Y-93868359D01*
G75*
G02*
X120687679Y-93618360I249999J0D01*
G01*
X121587681Y-93618360D01*
G75*
G02*
X121837680Y-93868359I0J-249999D01*
G01*
X121837680Y-94518361D01*
G75*
G02*
X121587681Y-94768360I-249999J0D01*
G01*
G37*
G36*
G01*
X177041680Y-74850000D02*
X177041680Y-76100000D01*
G75*
G02*
X176791680Y-76350000I-250000J0D01*
G01*
X175866680Y-76350000D01*
G75*
G02*
X175616680Y-76100000I0J250000D01*
G01*
X175616680Y-74850000D01*
G75*
G02*
X175866680Y-74600000I250000J0D01*
G01*
X176791680Y-74600000D01*
G75*
G02*
X177041680Y-74850000I0J-250000D01*
G01*
G37*
G36*
G01*
X180016680Y-74850000D02*
X180016680Y-76100000D01*
G75*
G02*
X179766680Y-76350000I-250000J0D01*
G01*
X178841680Y-76350000D01*
G75*
G02*
X178591680Y-76100000I0J250000D01*
G01*
X178591680Y-74850000D01*
G75*
G02*
X178841680Y-74600000I250000J0D01*
G01*
X179766680Y-74600000D01*
G75*
G02*
X180016680Y-74850000I0J-250000D01*
G01*
G37*
G36*
G01*
X178141680Y-77212500D02*
X178141680Y-77687500D01*
G75*
G02*
X177904180Y-77925000I-237500J0D01*
G01*
X177329180Y-77925000D01*
G75*
G02*
X177091680Y-77687500I0J237500D01*
G01*
X177091680Y-77212500D01*
G75*
G02*
X177329180Y-76975000I237500J0D01*
G01*
X177904180Y-76975000D01*
G75*
G02*
X178141680Y-77212500I0J-237500D01*
G01*
G37*
G36*
G01*
X179891680Y-77212500D02*
X179891680Y-77687500D01*
G75*
G02*
X179654180Y-77925000I-237500J0D01*
G01*
X179079180Y-77925000D01*
G75*
G02*
X178841680Y-77687500I0J237500D01*
G01*
X178841680Y-77212500D01*
G75*
G02*
X179079180Y-76975000I237500J0D01*
G01*
X179654180Y-76975000D01*
G75*
G02*
X179891680Y-77212500I0J-237500D01*
G01*
G37*
G36*
G01*
X186254180Y-76125000D02*
X186254180Y-74875000D01*
G75*
G02*
X186504180Y-74625000I250000J0D01*
G01*
X187429180Y-74625000D01*
G75*
G02*
X187679180Y-74875000I0J-250000D01*
G01*
X187679180Y-76125000D01*
G75*
G02*
X187429180Y-76375000I-250000J0D01*
G01*
X186504180Y-76375000D01*
G75*
G02*
X186254180Y-76125000I0J250000D01*
G01*
G37*
G36*
G01*
X183279180Y-76125000D02*
X183279180Y-74875000D01*
G75*
G02*
X183529180Y-74625000I250000J0D01*
G01*
X184454180Y-74625000D01*
G75*
G02*
X184704180Y-74875000I0J-250000D01*
G01*
X184704180Y-76125000D01*
G75*
G02*
X184454180Y-76375000I-250000J0D01*
G01*
X183529180Y-76375000D01*
G75*
G02*
X183279180Y-76125000I0J250000D01*
G01*
G37*
G36*
G01*
X185066680Y-77687500D02*
X185066680Y-77212500D01*
G75*
G02*
X185304180Y-76975000I237500J0D01*
G01*
X185879180Y-76975000D01*
G75*
G02*
X186116680Y-77212500I0J-237500D01*
G01*
X186116680Y-77687500D01*
G75*
G02*
X185879180Y-77925000I-237500J0D01*
G01*
X185304180Y-77925000D01*
G75*
G02*
X185066680Y-77687500I0J237500D01*
G01*
G37*
G36*
G01*
X183316680Y-77687500D02*
X183316680Y-77212500D01*
G75*
G02*
X183554180Y-76975000I237500J0D01*
G01*
X184129180Y-76975000D01*
G75*
G02*
X184366680Y-77212500I0J-237500D01*
G01*
X184366680Y-77687500D01*
G75*
G02*
X184129180Y-77925000I-237500J0D01*
G01*
X183554180Y-77925000D01*
G75*
G02*
X183316680Y-77687500I0J237500D01*
G01*
G37*
G36*
G01*
X192416680Y-77750000D02*
X191166680Y-77750000D01*
G75*
G02*
X190916680Y-77500000I0J250000D01*
G01*
X190916680Y-76575000D01*
G75*
G02*
X191166680Y-76325000I250000J0D01*
G01*
X192416680Y-76325000D01*
G75*
G02*
X192666680Y-76575000I0J-250000D01*
G01*
X192666680Y-77500000D01*
G75*
G02*
X192416680Y-77750000I-250000J0D01*
G01*
G37*
G36*
G01*
X192416680Y-80725000D02*
X191166680Y-80725000D01*
G75*
G02*
X190916680Y-80475000I0J250000D01*
G01*
X190916680Y-79550000D01*
G75*
G02*
X191166680Y-79300000I250000J0D01*
G01*
X192416680Y-79300000D01*
G75*
G02*
X192666680Y-79550000I0J-250000D01*
G01*
X192666680Y-80475000D01*
G75*
G02*
X192416680Y-80725000I-250000J0D01*
G01*
G37*
G36*
G01*
X189779180Y-78975000D02*
X189304180Y-78975000D01*
G75*
G02*
X189066680Y-78737500I0J237500D01*
G01*
X189066680Y-78162500D01*
G75*
G02*
X189304180Y-77925000I237500J0D01*
G01*
X189779180Y-77925000D01*
G75*
G02*
X190016680Y-78162500I0J-237500D01*
G01*
X190016680Y-78737500D01*
G75*
G02*
X189779180Y-78975000I-237500J0D01*
G01*
G37*
G36*
G01*
X189779180Y-80725000D02*
X189304180Y-80725000D01*
G75*
G02*
X189066680Y-80487500I0J237500D01*
G01*
X189066680Y-79912500D01*
G75*
G02*
X189304180Y-79675000I237500J0D01*
G01*
X189779180Y-79675000D01*
G75*
G02*
X190016680Y-79912500I0J-237500D01*
G01*
X190016680Y-80487500D01*
G75*
G02*
X189779180Y-80725000I-237500J0D01*
G01*
G37*
G36*
G01*
X187866500Y-78967740D02*
X187391500Y-78967740D01*
G75*
G02*
X187154000Y-78730240I0J237500D01*
G01*
X187154000Y-78155240D01*
G75*
G02*
X187391500Y-77917740I237500J0D01*
G01*
X187866500Y-77917740D01*
G75*
G02*
X188104000Y-78155240I0J-237500D01*
G01*
X188104000Y-78730240D01*
G75*
G02*
X187866500Y-78967740I-237500J0D01*
G01*
G37*
G36*
G01*
X187866500Y-80717740D02*
X187391500Y-80717740D01*
G75*
G02*
X187154000Y-80480240I0J237500D01*
G01*
X187154000Y-79905240D01*
G75*
G02*
X187391500Y-79667740I237500J0D01*
G01*
X187866500Y-79667740D01*
G75*
G02*
X188104000Y-79905240I0J-237500D01*
G01*
X188104000Y-80480240D01*
G75*
G02*
X187866500Y-80717740I-237500J0D01*
G01*
G37*
G36*
G01*
X179106080Y-85611960D02*
X179106080Y-86086960D01*
G75*
G02*
X178868580Y-86324460I-237500J0D01*
G01*
X178293580Y-86324460D01*
G75*
G02*
X178056080Y-86086960I0J237500D01*
G01*
X178056080Y-85611960D01*
G75*
G02*
X178293580Y-85374460I237500J0D01*
G01*
X178868580Y-85374460D01*
G75*
G02*
X179106080Y-85611960I0J-237500D01*
G01*
G37*
G36*
G01*
X180856080Y-85611960D02*
X180856080Y-86086960D01*
G75*
G02*
X180618580Y-86324460I-237500J0D01*
G01*
X180043580Y-86324460D01*
G75*
G02*
X179806080Y-86086960I0J237500D01*
G01*
X179806080Y-85611960D01*
G75*
G02*
X180043580Y-85374460I237500J0D01*
G01*
X180618580Y-85374460D01*
G75*
G02*
X180856080Y-85611960I0J-237500D01*
G01*
G37*
G36*
G01*
X183931040Y-87806540D02*
X183931040Y-87331540D01*
G75*
G02*
X184168540Y-87094040I237500J0D01*
G01*
X184743540Y-87094040D01*
G75*
G02*
X184981040Y-87331540I0J-237500D01*
G01*
X184981040Y-87806540D01*
G75*
G02*
X184743540Y-88044040I-237500J0D01*
G01*
X184168540Y-88044040D01*
G75*
G02*
X183931040Y-87806540I0J237500D01*
G01*
G37*
G36*
G01*
X182181040Y-87806540D02*
X182181040Y-87331540D01*
G75*
G02*
X182418540Y-87094040I237500J0D01*
G01*
X182993540Y-87094040D01*
G75*
G02*
X183231040Y-87331540I0J-237500D01*
G01*
X183231040Y-87806540D01*
G75*
G02*
X182993540Y-88044040I-237500J0D01*
G01*
X182418540Y-88044040D01*
G75*
G02*
X182181040Y-87806540I0J237500D01*
G01*
G37*
G36*
G01*
X125242740Y-90548881D02*
X125242740Y-89648879D01*
G75*
G02*
X125492739Y-89398880I249999J0D01*
G01*
X126142741Y-89398880D01*
G75*
G02*
X126392740Y-89648879I0J-249999D01*
G01*
X126392740Y-90548881D01*
G75*
G02*
X126142741Y-90798880I-249999J0D01*
G01*
X125492739Y-90798880D01*
G75*
G02*
X125242740Y-90548881I0J249999D01*
G01*
G37*
G36*
G01*
X123192740Y-90548881D02*
X123192740Y-89648879D01*
G75*
G02*
X123442739Y-89398880I249999J0D01*
G01*
X124092741Y-89398880D01*
G75*
G02*
X124342740Y-89648879I0J-249999D01*
G01*
X124342740Y-90548881D01*
G75*
G02*
X124092741Y-90798880I-249999J0D01*
G01*
X123442739Y-90798880D01*
G75*
G02*
X123192740Y-90548881I0J249999D01*
G01*
G37*
G36*
G01*
X114648401Y-94410000D02*
X113748399Y-94410000D01*
G75*
G02*
X113498400Y-94160001I0J249999D01*
G01*
X113498400Y-93509999D01*
G75*
G02*
X113748399Y-93260000I249999J0D01*
G01*
X114648401Y-93260000D01*
G75*
G02*
X114898400Y-93509999I0J-249999D01*
G01*
X114898400Y-94160001D01*
G75*
G02*
X114648401Y-94410000I-249999J0D01*
G01*
G37*
G36*
G01*
X114648401Y-96460000D02*
X113748399Y-96460000D01*
G75*
G02*
X113498400Y-96210001I0J249999D01*
G01*
X113498400Y-95559999D01*
G75*
G02*
X113748399Y-95310000I249999J0D01*
G01*
X114648401Y-95310000D01*
G75*
G02*
X114898400Y-95559999I0J-249999D01*
G01*
X114898400Y-96210001D01*
G75*
G02*
X114648401Y-96460000I-249999J0D01*
G01*
G37*
G36*
G01*
X116858201Y-94411380D02*
X115958199Y-94411380D01*
G75*
G02*
X115708200Y-94161381I0J249999D01*
G01*
X115708200Y-93511379D01*
G75*
G02*
X115958199Y-93261380I249999J0D01*
G01*
X116858201Y-93261380D01*
G75*
G02*
X117108200Y-93511379I0J-249999D01*
G01*
X117108200Y-94161381D01*
G75*
G02*
X116858201Y-94411380I-249999J0D01*
G01*
G37*
G36*
G01*
X116858201Y-96461380D02*
X115958199Y-96461380D01*
G75*
G02*
X115708200Y-96211381I0J249999D01*
G01*
X115708200Y-95561379D01*
G75*
G02*
X115958199Y-95311380I249999J0D01*
G01*
X116858201Y-95311380D01*
G75*
G02*
X117108200Y-95561379I0J-249999D01*
G01*
X117108200Y-96211381D01*
G75*
G02*
X116858201Y-96461380I-249999J0D01*
G01*
G37*
G36*
G01*
X119029901Y-94413920D02*
X118129899Y-94413920D01*
G75*
G02*
X117879900Y-94163921I0J249999D01*
G01*
X117879900Y-93513919D01*
G75*
G02*
X118129899Y-93263920I249999J0D01*
G01*
X119029901Y-93263920D01*
G75*
G02*
X119279900Y-93513919I0J-249999D01*
G01*
X119279900Y-94163921D01*
G75*
G02*
X119029901Y-94413920I-249999J0D01*
G01*
G37*
G36*
G01*
X119029901Y-96463920D02*
X118129899Y-96463920D01*
G75*
G02*
X117879900Y-96213921I0J249999D01*
G01*
X117879900Y-95563919D01*
G75*
G02*
X118129899Y-95313920I249999J0D01*
G01*
X119029901Y-95313920D01*
G75*
G02*
X119279900Y-95563919I0J-249999D01*
G01*
X119279900Y-96213921D01*
G75*
G02*
X119029901Y-96463920I-249999J0D01*
G01*
G37*
G36*
G01*
X111056840Y-90541261D02*
X111056840Y-89641259D01*
G75*
G02*
X111306839Y-89391260I249999J0D01*
G01*
X111956841Y-89391260D01*
G75*
G02*
X112206840Y-89641259I0J-249999D01*
G01*
X112206840Y-90541261D01*
G75*
G02*
X111956841Y-90791260I-249999J0D01*
G01*
X111306839Y-90791260D01*
G75*
G02*
X111056840Y-90541261I0J249999D01*
G01*
G37*
G36*
G01*
X109006840Y-90541261D02*
X109006840Y-89641259D01*
G75*
G02*
X109256839Y-89391260I249999J0D01*
G01*
X109906841Y-89391260D01*
G75*
G02*
X110156840Y-89641259I0J-249999D01*
G01*
X110156840Y-90541261D01*
G75*
G02*
X109906841Y-90791260I-249999J0D01*
G01*
X109256839Y-90791260D01*
G75*
G02*
X109006840Y-90541261I0J249999D01*
G01*
G37*
M02*
