M48
; DRILL file {KiCad (5.1.6)-1} date 09/08/20 15:57:38
; FORMAT={-:-/ absolute / metric / decimal}
; #@! TF.CreationDate,2020-09-08T15:57:38+05:30
; #@! TF.GenerationSoftware,Kicad,Pcbnew,(5.1.6)-1
; #@! TF.FileFunction,Plated,1,4,PTH
FMAT,2
METRIC
T1C0.106
T2C0.144
T3C0.300
T4C0.400
T5C0.500
T6C0.600
T7C3.200
%
G90
G05
T1
X136.457Y-88.71
X136.457Y-89.135
X136.457Y-89.56
X136.457Y-89.985
X136.882Y-88.71
X136.882Y-89.135
X136.882Y-89.56
X136.882Y-89.985
X137.307Y-88.71
X137.307Y-89.135
X137.307Y-89.56
X137.307Y-89.985
X137.732Y-88.71
X137.732Y-89.135
X137.732Y-89.56
X137.732Y-89.985
T2
X181.209Y-80.539
X181.209Y-81.114
X181.209Y-81.689
X181.209Y-82.264
X181.209Y-82.839
X181.784Y-80.539
X181.784Y-81.114
X181.784Y-81.689
X181.784Y-82.264
X181.784Y-82.839
X182.359Y-80.539
X182.359Y-81.114
X182.359Y-81.689
X182.359Y-82.264
X182.359Y-82.839
X182.934Y-80.539
X182.934Y-81.114
X182.934Y-81.689
X182.934Y-82.264
X182.934Y-82.839
X183.509Y-80.539
X183.509Y-81.114
X183.509Y-81.689
X183.509Y-82.264
X183.509Y-82.839
X181.209Y-98.44
X181.209Y-99.015
X181.209Y-99.59
X181.209Y-100.165
X181.209Y-100.74
X181.784Y-98.44
X181.784Y-99.015
X181.784Y-99.59
X181.784Y-100.165
X181.784Y-100.74
X182.359Y-98.44
X182.359Y-99.015
X182.359Y-99.59
X182.359Y-100.165
X182.359Y-100.74
X182.934Y-98.44
X182.934Y-99.015
X182.934Y-99.59
X182.934Y-100.165
X182.934Y-100.74
X183.509Y-98.44
X183.509Y-99.015
X183.509Y-99.59
X183.509Y-100.165
X183.509Y-100.74
T3
X99.936Y-88.349
X101.209Y-87.198
X102.42Y-88.326
X106.091Y-89.449
X106.294Y-91.242
X109.508Y-115.991
X110.008Y-117.191
X110.908Y-113.466
X111.308Y-117.166
X111.708Y-112.491
X112.208Y-113.466
X112.658Y-117.166
X114.008Y-117.166
X114.683Y-102.641
X114.683Y-103.641
X114.683Y-104.641
X114.683Y-105.641
X114.683Y-106.641
X114.683Y-107.641
X114.683Y-108.641
X114.683Y-109.641
X115.255Y-86.36
X115.255Y-87.36
X115.255Y-88.36
X115.525Y-58.315
X115.525Y-59.315
X115.525Y-60.315
X115.883Y-102.641
X115.883Y-103.641
X115.883Y-104.641
X115.883Y-105.641
X115.883Y-106.641
X115.883Y-107.641
X115.883Y-108.641
X115.883Y-109.641
X116.255Y-86.36
X116.255Y-87.36
X116.255Y-88.36
X116.725Y-58.315
X116.725Y-59.315
X116.725Y-60.315
X117.241Y-91.679
X117.241Y-92.495
X117.255Y-86.36
X117.255Y-87.36
X117.255Y-88.36
X117.975Y-58.315
X117.975Y-59.315
X117.975Y-60.315
X117.975Y-61.315
X117.975Y-62.315
X117.975Y-63.315
X117.975Y-64.315
X117.975Y-65.315
X118.255Y-86.36
X118.255Y-87.36
X118.255Y-88.36
X119.175Y-58.315
X119.175Y-59.315
X119.175Y-60.315
X119.175Y-61.315
X119.175Y-62.315
X119.175Y-63.315
X119.175Y-64.315
X119.175Y-65.315
X119.255Y-86.36
X119.255Y-87.36
X119.255Y-88.36
X119.708Y-106.716
X119.733Y-104.491
X119.733Y-105.591
X120.325Y-58.315
X120.325Y-59.315
X120.325Y-60.315
X124.883Y-107.991
X124.908Y-104.391
X124.908Y-105.541
X124.908Y-106.741
X126.133Y-108.116
X126.233Y-106.891
X127.083Y-107.591
X133.1Y-85.5
X133.1Y-86.6
X133.144Y-72.278
X134.069Y-73.731
X134.2Y-85.5
X134.2Y-86.6
X134.991Y-73.731
X135.3Y-85.5
X135.3Y-86.6
X135.3Y-87.7
X135.915Y-73.754
X136.538Y-72.278
X136.555Y-91.651
X137.531Y-91.658
X139.802Y-88.443
X174.572Y-75.331
X174.607Y-93.279
X174.622Y-74.353
X174.622Y-76.279
X174.658Y-92.301
X174.658Y-94.226
X175.423Y-77.163
X175.458Y-95.11
X175.562Y-73.665
X175.598Y-91.613
X175.892Y-105.2
X176.421Y-77.551
X176.441Y-78.666
X176.456Y-95.499
X176.472Y-87.084
X176.477Y-96.614
X176.542Y-83.075
X176.642Y-101.175
X176.942Y-105.2
X177.386Y-88.075
X177.48Y-106.581
X177.556Y-78.676
X177.592Y-96.624
X177.617Y-83.075
X177.691Y-87.084
X177.717Y-101.175
X177.992Y-105.2
X178.192Y-83.9
X178.292Y-102.0
X178.592Y-88.1
X178.667Y-84.65
X178.767Y-102.75
X178.808Y-87.084
X179.167Y-83.9
X179.267Y-102.0
X179.812Y-88.29
X179.842Y-84.775
X179.967Y-102.9
X180.067Y-86.9
X180.092Y-83.9
X180.192Y-102.0
X181.031Y-88.278
X181.067Y-86.9
X181.386Y-105.029
X183.614Y-84.963
X183.949Y-102.972
X184.442Y-78.975
X184.442Y-96.9
X184.894Y-107.823
X185.317Y-78.975
X185.317Y-96.9
X185.859Y-88.036
X185.9Y-86.812
X186.017Y-78.425
X186.017Y-96.35
X186.411Y-107.851
X186.442Y-79.575
X186.442Y-80.475
X186.467Y-97.475
X186.467Y-98.375
X186.55Y-85.56
X186.576Y-103.845
X186.642Y-77.85
X186.642Y-95.775
X186.67Y-105.006
X186.698Y-106.416
X187.167Y-77.1
X187.167Y-95.025
X187.917Y-73.75
X187.917Y-91.675
X188.167Y-77.1
X188.167Y-95.025
X188.692Y-76.25
X188.692Y-94.175
X188.717Y-74.475
X188.717Y-75.35
X188.717Y-92.4
X188.717Y-93.275
X189.167Y-77.1
X189.167Y-95.025
X189.667Y-75.35
X189.667Y-76.25
X189.667Y-93.275
X189.667Y-94.175
X190.167Y-77.1
X190.167Y-95.025
X190.592Y-75.35
X190.592Y-93.275
X191.492Y-75.35
X191.492Y-93.275
X191.792Y-78.6
X191.792Y-96.5
X192.367Y-75.35
X192.367Y-93.275
X193.567Y-78.65
X193.567Y-79.55
X193.567Y-80.45
X193.567Y-96.55
X193.567Y-97.45
X193.567Y-98.35
X194.342Y-79.1
X194.342Y-80.05
X194.342Y-97.0
X194.342Y-97.95
X195.067Y-78.65
X195.067Y-79.55
X195.067Y-80.45
X195.067Y-96.55
X195.067Y-97.45
X195.067Y-98.35
T4
X110.434Y-69.159
X112.2Y-69.165
X112.2Y-70.765
X112.2Y-72.365
X112.2Y-73.965
X112.489Y-93.774
X113.975Y-69.165
X114.1Y-74.215
X114.125Y-73.04
X114.15Y-92.357
X115.625Y-73.04
X115.625Y-74.215
X115.825Y-69.165
X116.289Y-92.38
X117.125Y-73.04
X117.15Y-74.19
X117.325Y-84.92
X118.633Y-92.446
X123.275Y-62.49
X123.3Y-61.015
X123.35Y-59.59
X125.15Y-59.59
X127.0Y-59.59
X128.475Y-60.29
X128.5Y-61.74
X128.85Y-63.14
X130.05Y-59.615
X130.4Y-63.115
X177.992Y-73.85
X177.992Y-91.75
X179.092Y-79.35
X179.092Y-97.25
X179.492Y-73.85
X179.492Y-91.75
X180.192Y-78.675
X180.192Y-96.575
X180.992Y-73.85
X180.992Y-75.15
X180.992Y-76.45
X180.992Y-77.75
X180.992Y-91.75
X180.992Y-93.05
X180.992Y-94.35
X180.992Y-95.65
X182.492Y-73.85
X182.492Y-75.15
X182.492Y-76.45
X182.492Y-77.75
X182.492Y-91.75
X182.492Y-93.05
X182.492Y-94.35
X182.492Y-95.65
X183.992Y-73.85
X183.992Y-91.75
X185.492Y-73.85
X185.492Y-91.75
T5
X94.1Y-48.0
X94.803Y-46.303
X94.803Y-49.697
X96.5Y-45.6
X96.5Y-50.4
X98.197Y-46.303
X98.197Y-49.697
X98.9Y-48.0
X94.1Y-118.5
X94.803Y-116.803
X94.803Y-120.197
X96.5Y-116.1
X96.5Y-120.9
X98.197Y-116.803
X98.197Y-120.197
X98.9Y-118.5
X225.6Y-48.0
X226.303Y-46.303
X226.303Y-49.697
X228.0Y-45.6
X228.0Y-50.4
X229.697Y-46.303
X229.697Y-49.697
X230.4Y-48.0
X225.6Y-118.5
X226.303Y-116.803
X226.303Y-120.197
X228.0Y-116.1
X228.0Y-120.9
X229.697Y-116.803
X229.697Y-120.197
X230.4Y-118.5
X190.6Y-68.085
X191.303Y-66.388
X191.303Y-69.782
X193.0Y-65.685
X193.0Y-70.485
X194.697Y-66.388
X194.697Y-69.782
X195.4Y-68.085
X190.6Y-110.825
X191.303Y-109.128
X191.303Y-112.522
X193.0Y-108.425
X193.0Y-113.225
X194.697Y-109.128
X194.697Y-112.522
X195.4Y-110.825
T6
X92.418Y-56.426
X92.418Y-57.926
X92.418Y-59.426
X92.583Y-44.625
X92.613Y-77.752
X92.613Y-80.292
X92.613Y-82.832
X92.613Y-85.372
X92.672Y-95.588
X92.672Y-98.128
X92.672Y-100.668
X92.71Y-64.986
X92.761Y-122.077
X92.923Y-54.117
X92.949Y-51.676
X94.218Y-56.426
X94.218Y-57.926
X94.218Y-59.426
X94.602Y-64.986
X95.153Y-77.752
X95.153Y-80.292
X95.153Y-82.832
X95.153Y-85.372
X95.194Y-54.11
X95.212Y-95.588
X95.212Y-98.128
X95.212Y-100.668
X95.446Y-72.406
X95.446Y-74.106
X95.816Y-70.675
X95.816Y-75.775
X96.018Y-56.426
X96.018Y-57.926
X96.018Y-59.426
X96.482Y-64.986
X96.741Y-73.226
X97.616Y-70.675
X97.616Y-75.775
X97.818Y-56.426
X97.818Y-57.926
X97.818Y-59.426
X98.285Y-64.986
X99.416Y-70.675
X99.416Y-75.775
X99.618Y-56.426
X99.618Y-57.926
X99.618Y-59.426
X99.809Y-67.513
X99.86Y-64.96
X101.092Y-44.722
X101.092Y-47.262
X101.216Y-70.675
X101.216Y-72.376
X101.216Y-74.075
X101.216Y-75.775
X101.418Y-56.426
X101.418Y-57.926
X101.418Y-59.426
X101.448Y-60.973
X101.448Y-62.473
X101.448Y-63.973
X101.448Y-65.473
X101.448Y-66.973
X101.448Y-68.473
X101.641Y-119.522
X101.641Y-122.062
X103.016Y-70.675
X103.016Y-72.376
X103.016Y-74.075
X103.016Y-75.775
X103.218Y-56.426
X103.218Y-57.926
X103.218Y-59.426
X103.248Y-60.973
X103.248Y-62.473
X103.248Y-63.973
X103.248Y-65.473
X103.248Y-66.973
X103.248Y-68.473
X103.632Y-44.722
X103.632Y-47.262
X104.181Y-119.522
X104.181Y-122.062
X104.683Y-111.341
X104.758Y-102.816
X104.758Y-104.616
X104.758Y-106.416
X104.816Y-70.675
X104.816Y-72.376
X104.816Y-74.075
X104.816Y-75.775
X105.018Y-57.926
X105.018Y-59.426
X105.048Y-60.973
X105.048Y-62.473
X105.048Y-63.973
X105.048Y-65.473
X105.048Y-66.973
X105.048Y-68.473
X106.172Y-44.722
X106.172Y-47.262
X106.401Y-67.831
X106.413Y-66.307
X106.439Y-64.706
X106.483Y-111.716
X106.558Y-102.816
X106.558Y-104.616
X106.558Y-106.416
X106.566Y-70.772
X106.616Y-72.376
X106.616Y-74.075
X106.616Y-75.775
X106.721Y-119.522
X106.721Y-122.062
X108.083Y-108.141
X108.083Y-109.916
X108.083Y-111.716
X108.316Y-72.573
X108.358Y-102.816
X108.358Y-104.616
X108.358Y-106.416
X108.416Y-74.075
X108.416Y-75.775
X108.712Y-44.722
X108.712Y-47.262
X109.261Y-119.522
X109.261Y-122.062
X109.695Y-73.398
X109.758Y-74.94
X110.208Y-109.291
X110.208Y-110.866
X111.125Y-67.29
X111.175Y-65.765
X111.225Y-64.265
X111.252Y-44.722
X111.252Y-47.262
X111.801Y-119.522
X111.801Y-122.062
X113.1Y-67.29
X113.15Y-65.765
X113.2Y-64.265
X113.792Y-44.722
X113.792Y-47.262
X114.341Y-119.522
X114.341Y-122.062
X116.332Y-44.722
X116.332Y-47.262
X116.881Y-119.522
X116.881Y-122.062
X118.872Y-44.722
X118.872Y-47.262
X119.421Y-119.522
X119.421Y-122.062
X121.412Y-44.722
X121.412Y-47.262
X121.961Y-119.522
X121.961Y-122.062
X123.952Y-44.722
X123.952Y-47.262
X124.501Y-119.522
X124.501Y-122.062
X126.492Y-44.722
X126.492Y-47.262
X127.041Y-119.522
X127.041Y-122.062
X127.383Y-116.516
X127.508Y-110.216
X129.032Y-44.722
X129.032Y-47.262
X129.183Y-116.516
X129.308Y-110.216
X129.581Y-119.522
X129.581Y-122.062
X131.108Y-110.216
X131.325Y-65.49
X131.35Y-66.965
X131.572Y-44.722
X131.572Y-47.262
X132.121Y-119.522
X132.121Y-122.062
X133.125Y-65.49
X133.15Y-66.965
X133.308Y-106.616
X133.308Y-108.416
X133.308Y-110.216
X134.112Y-44.722
X134.112Y-47.262
X134.661Y-119.522
X134.661Y-122.062
X134.95Y-65.165
X134.95Y-66.965
X135.058Y-113.766
X135.108Y-106.616
X135.108Y-108.416
X135.108Y-110.216
X135.108Y-112.016
X136.652Y-44.722
X136.652Y-47.262
X136.725Y-63.365
X136.75Y-65.165
X136.75Y-66.965
X136.75Y-68.765
X136.75Y-70.565
X136.858Y-113.766
X136.908Y-106.616
X136.908Y-108.416
X136.908Y-110.216
X136.908Y-112.016
X137.201Y-119.522
X137.201Y-122.062
X138.525Y-63.365
X138.55Y-65.165
X138.55Y-66.965
X138.55Y-68.765
X138.55Y-70.565
X138.708Y-106.616
X138.708Y-108.416
X138.708Y-110.216
X139.192Y-44.722
X139.192Y-47.262
X139.741Y-119.522
X139.741Y-122.062
X140.35Y-65.165
X140.35Y-66.965
X140.35Y-68.765
X140.35Y-70.565
X140.508Y-106.616
X140.508Y-108.416
X140.558Y-110.191
X141.732Y-44.722
X141.732Y-47.262
X142.15Y-65.165
X142.15Y-66.965
X142.15Y-68.765
X142.15Y-70.565
X142.281Y-119.522
X142.281Y-122.062
X142.508Y-110.191
X142.575Y-63.315
X142.858Y-111.916
X142.858Y-113.716
X143.95Y-65.165
X143.95Y-66.965
X143.95Y-68.765
X143.95Y-70.565
X144.05Y-63.315
X144.272Y-44.722
X144.272Y-47.262
X144.821Y-119.522
X144.821Y-122.062
X146.812Y-44.722
X146.812Y-47.262
X147.025Y-61.163
X147.361Y-119.522
X147.361Y-122.062
X149.352Y-44.722
X149.352Y-47.262
X149.565Y-61.163
X149.901Y-119.522
X149.901Y-122.062
X151.892Y-44.722
X151.892Y-47.262
X152.105Y-61.163
X152.441Y-119.522
X152.441Y-122.062
X154.432Y-44.722
X154.432Y-47.262
X154.645Y-61.163
X154.981Y-119.522
X154.981Y-122.062
X156.972Y-44.722
X156.972Y-47.262
X157.185Y-61.163
X157.521Y-119.522
X157.521Y-122.062
X159.512Y-44.722
X159.512Y-47.262
X159.725Y-61.163
X160.061Y-119.522
X160.061Y-122.062
X162.052Y-44.722
X162.052Y-47.262
X162.265Y-61.163
X162.601Y-119.522
X162.601Y-122.062
X164.592Y-44.722
X164.592Y-47.262
X164.805Y-61.163
X165.141Y-119.522
X165.141Y-122.062
X167.132Y-44.722
X167.132Y-47.262
X167.345Y-61.163
X167.681Y-119.522
X167.681Y-122.062
X169.672Y-44.722
X169.672Y-47.262
X169.885Y-61.163
X170.221Y-119.522
X170.221Y-122.062
X172.212Y-44.722
X172.212Y-47.262
X172.425Y-61.163
X172.761Y-119.522
X172.761Y-122.062
X174.752Y-44.722
X174.752Y-47.262
X174.965Y-61.163
X175.301Y-119.522
X175.301Y-122.062
X177.292Y-44.722
X177.292Y-47.262
X177.505Y-61.163
X177.841Y-119.522
X177.841Y-122.062
X179.832Y-44.722
X179.832Y-47.262
X180.045Y-61.163
X180.381Y-119.522
X180.381Y-122.062
X182.372Y-44.722
X182.372Y-47.262
X182.921Y-119.522
X182.921Y-122.062
X184.912Y-44.722
X184.912Y-47.262
X185.461Y-119.522
X185.461Y-122.062
X187.452Y-44.722
X187.452Y-47.262
X188.001Y-119.522
X188.001Y-122.062
X189.992Y-44.722
X189.992Y-47.262
X190.541Y-119.522
X190.541Y-122.062
X192.532Y-44.722
X192.532Y-47.262
X193.081Y-119.522
X193.081Y-122.062
X195.072Y-44.722
X195.072Y-47.262
X195.621Y-119.522
X195.621Y-122.062
X197.612Y-44.722
X197.612Y-47.262
X198.161Y-119.522
X198.161Y-122.062
X200.152Y-44.722
X200.152Y-47.262
X200.701Y-119.522
X200.701Y-122.062
X202.692Y-44.722
X202.692Y-47.262
X203.241Y-119.522
X203.241Y-122.062
X205.232Y-44.722
X205.232Y-47.262
X205.781Y-119.522
X205.781Y-122.062
X207.772Y-44.722
X207.772Y-47.262
X208.321Y-119.522
X208.321Y-122.062
X210.312Y-44.722
X210.312Y-47.262
X210.861Y-119.522
X210.861Y-122.062
X212.852Y-44.722
X212.852Y-47.262
X213.401Y-119.522
X213.401Y-122.062
X215.392Y-44.722
X215.392Y-47.262
X215.941Y-119.522
X215.941Y-122.062
X217.932Y-44.722
X217.932Y-47.262
X218.481Y-119.522
X218.481Y-122.062
X220.472Y-44.722
X220.472Y-47.262
X221.021Y-119.522
X221.021Y-122.062
X223.012Y-44.722
X223.012Y-47.262
X223.561Y-119.522
X223.561Y-122.062
X229.108Y-97.048
X229.108Y-99.588
X229.108Y-102.128
X229.108Y-104.668
X229.108Y-107.208
X229.108Y-109.748
X229.108Y-112.288
X229.23Y-53.386
X229.23Y-55.926
X229.23Y-58.466
X229.23Y-61.006
X229.23Y-63.546
X229.23Y-66.086
X229.23Y-68.626
X229.23Y-71.166
X229.23Y-73.706
X229.23Y-76.246
X229.23Y-78.786
X229.23Y-81.326
X229.23Y-83.866
X229.23Y-86.406
X231.557Y-122.085
X231.648Y-97.048
X231.648Y-99.588
X231.648Y-102.128
X231.648Y-104.668
X231.648Y-107.208
X231.648Y-109.748
X231.648Y-112.288
X231.648Y-114.828
X231.732Y-44.691
X231.77Y-50.846
X231.77Y-53.386
X231.77Y-55.926
X231.77Y-58.466
X231.77Y-61.006
X231.77Y-63.546
X231.77Y-66.086
X231.77Y-68.626
X231.77Y-71.166
X231.77Y-73.706
X231.77Y-76.246
X231.77Y-78.786
X231.77Y-81.326
X231.77Y-83.866
X231.77Y-86.406
T7
X228.0Y-118.5
X193.0Y-68.085
X193.0Y-110.825
X96.5Y-48.0
X96.5Y-118.5
X228.0Y-48.0
T0
M30
